<?xml version="1.0" standalone="no"?>
<!DOCTYPE svg PUBLIC "-//W3C//DTD SVG 1.1//EN" "http://www.w3.org/Graphics/SVG/1.1/DTD/svg11.dtd" >
<svg xmlns="http://www.w3.org/2000/svg">
<metadata>Generated by IcoMoon</metadata>
<defs>
<font id="icomoon" horiz-adv-x="1024">
<font-face units-per-em="1024" ascent="960" descent="-64" />
<missing-glyph horiz-adv-x="1024" />
<glyph unicode="&#x20;" d="" horiz-adv-x="512" />
<glyph unicode="&#xe600;" d="M491.144 434.169c-39.215 36.732-79.97 72.122-106.845 119.857-13.091 23.282-19.799 47.947-10.951 74.526 6.771 20.369 19.862 36.981 35.395 50.922 26.346 23.667 53.797 46.118 81.207 68.57 26.294 21.542 52.567 42.995 73.041 70.541 27.964 37.625 36.547 79.23 26.119 124.852-0.222 0.94-0.28 1.919-0.73 5.138 3.324-4.392 5.612-6.945 7.379-9.82 21.838-35.448 21.447-72.396 6.644-109.952-14.91-37.804-40.394-68.236-69.717-95.46-20.063-18.625-41.954-35.294-61.969-53.978-11.86-11.067-22.663-23.614-32.187-36.769-26.537-36.658-27.060-75.383-4.809-114.007 12.024-20.861 26.405-40.369 39.517-60.615 6.908-10.67 13.372-21.617 20.046-32.435-0.713-0.466-1.438-0.92-2.141-1.369zM786.247 139.162c15.364-6.929 17.504-17.631 5.275-28.619-12.822-11.511-28.799-17.272-44.723-22.689-38.867-13.208-79.071-20.417-119.635-26.014-61.609-8.509-123.53-11.516-185.646-11.189-55.299 0.296-110.523 2.764-165.436 9.656-32.594 4.081-65.087 8.905-97.559 13.847-6.839 1.047-13.625 3.573-19.994 6.405-15.686 6.998-17.695 18.598-4.477 29.422 8.266 6.771 17.631 12.579 27.276 17.224 26.675 12.849 54.976 20.554 84.525 22.795 8.297 0.623 16.754-0.967 25.142-1.528 0.005-0.825 0.015-1.649 0.021-2.478-6.226-0.84-12.711-0.856-18.63-2.685-18.62-5.739-37.171-11.765-55.42-18.546-5.803-2.167-12.959-5.914-12.23-13.667 0.693-7.352 8.261-8.763 13.995-10.951 26.706-10.221 54.754-14.355 82.93-17.642 64.035-7.462 128.366-9.012 192.713-7.24 41.917 1.169 83.79 4.081 125.634 6.982 39.317 2.717 78.458 7.431 116.775 16.955 13.028 3.229 25.96 7.816 38.038 13.678 13.086 6.358 14.963 12.79 11.426 26.283zM700.411 753.498c-11.49-7.050-23.038-14.016-34.465-21.183-29.417-18.456-58.443-37.545-83.532-61.789-8.075-7.811-15.491-16.537-21.996-25.713-14.545-20.512-16.21-42.593-3.864-64.616 7.838-13.985 17.446-26.986 26.067-40.543 4.973-7.822 10.359-15.522 14.18-23.9 7.018-15.417 6.574-31.489 0.042-46.926-13.033-30.823-38.133-49.987-65.869-66.413 4.73 6.701 9.994 13.091 14.090 20.147 14.746 25.374 12.151 49.691-5.777 72.92-11.475 14.861-23.307 29.914-31.774 46.52-21.738 42.635-13.948 85.393 19.492 120.639 30.268 31.901 67.909 52.376 107.78 69.034 20.121 8.404 41.087 14.772 61.689 22.034 1.12 0.396 2.331 0.523 3.505 0.777 0.148-0.327 0.296-0.655 0.434-0.988zM363.508 215.897c-7.658-10.591-6.215-16.691 6.712-19.994 14.033-3.583 28.492-6.125 42.91-7.309 23.265-1.902 46.784-4.429 69.944-2.88 34.211 2.283 68.189 7.943 102.273 12.044 2.558 0.301 5.612 0.354 7.822-0.718 15.522-7.616 30.881-15.564 47.804-24.164-15.967-5.365-31.061-11.072-46.515-15.475-48.549-13.799-98.267-17.949-148.46-15.132-30.612 1.733-61.033 6.168-89.626 18.091-8.91 3.71-17.647 8.758-25.067 14.878-10.359 8.541-9.708 19.54 1.464 27.012 9.217 6.157 19.66 10.491 29.555 15.644 0.396-0.666 0.793-1.332 1.184-1.997zM380.854 429.481c-20.971-6.813-41.568-13.108-61.847-20.29-8.429-2.991-16.628-7.204-24.148-12.082-9.366-6.068-8.71-13.34 1.829-16.621 12.124-3.769 24.777-6.58 37.403-7.885 49.137-5.079 98.426-3.637 147.641-1.406 69.251 3.156 138.112 10.333 206.994 22.525-16.843-12.981-46.816-24.877-73.649-29.719-47.503-8.568-95.36-14.328-143.604-15.205-44.194-0.793-88.457-0.972-132.631 0.454-31.542 1.015-63.126 4.355-93.669 13.287-6.654 1.955-13.223 4.899-19.116 8.541-6.247 3.869-6.411 9.455-0.925 14.392 3.498 3.139 7.606 5.803 11.834 7.875 45.193 22.177 92.839 34.723 143.889 36.134zM657.147 272.855c-29.729-6.088-57.539-12.605-85.635-17.324-42.419-7.13-85.303-10.243-128.324-9.132-39.173 1.004-78.31 3.562-115.819 16.416-8.192 2.802-16.204 6.934-23.339 11.849-9.825 6.781-10.264 16.786-1.623 24.925 10.803 10.164 24.391 15.295 39.84 20.871-2.959-4.413-5.036-7.087-6.664-10.010-4.154-7.431-3.261-13.868 4.513-16.945 10.1-4.006 20.971-7.426 31.716-8.155 35.072-2.41 70.235-4.899 105.349-4.719 45.236 0.232 90.012 6.923 134.418 15.576 5.517 1.067 9.72 0.333 14.519-3.261 9.144-6.839 19.174-12.51 31.050-20.089zM276.815 31.36c10.301-1.216 20.575-2.695 30.903-3.625 28.017-2.5 56.023-5.602 84.092-6.903 31.14-1.443 62.365-1.839 93.537-1.469 50.024 0.598 99.905 3.715 149.618 9.952 48.142 6.036 95.857 13.995 142.15 28.873 22.499 7.22 44.597 15.528 63.227 32.995-1.421-9.677-5.856-16.431-11.601-22.435-14.868-15.554-34.057-23.81-53.839-30.644-35.014-12.093-71.323-18.313-107.96-23.085-54.2-7.055-108.684-10.047-163.232-9.361-46.208 0.581-92.406 3.451-138.546 6.305-27.562 1.707-54.834 6.279-81.148 15.285-2.542 0.862-5 1.997-7.489 3.002 0.090 0.37 0.19 0.75 0.291 1.11zM716.504 422.79c7.093 9.672 17.536 11.59 27.81 13.472 21.056 3.852 41.509 2.13 60.722-8.123 34.052-18.186 45.241-56.404 26.51-90.186-9.746-17.589-23.978-30.886-40.31-42.112-29.528-20.29-62.619-32.309-97.649-40.474 1.977 1.416 3.847 3.044 5.961 4.213 29.417 16.172 57.671 33.942 79.948 59.627 10.306 11.881 18.715 25.057 21.791 40.743 5.998 30.627-13.382 58.993-44.168 65.964-12.225 2.759-23.926 1.067-35.675-2.014-1.638-0.434-3.298-0.74-4.941-1.11z" />
<glyph unicode="&#xe601;" d="M750.822 45.988c-194.76 0-389.514 0-584.274 0 0.118 6.979 0.348 13.962 0.348 20.946 0.015 227.272-0.123 454.548 0.445 681.825 0.026 10.865 4.28 22.979 10.076 32.333 19.185 30.966 39.977 60.928 60.15 91.274 206.592 0 413.189 0 619.781 0-0.097-6.979-0.276-13.957-0.282-20.936-0.010-235.766-0.102-471.526 0.256-707.287 0.015-11.443-3.405-18.458-12.524-25.293-31.718-23.762-62.71-48.497-93.978-72.863zM798.7 812.723c-3.845 0.799-4.895 1.213-5.944 1.213-171.044 0.072-342.083 0.128-513.126 0.067-3.548-0.005-8.745-0.195-10.373-2.381-10.307-13.814-19.825-28.216-31.903-45.768 173.184 0 341.228 0 511.089 0 0-215.67 0-429.778 0-646.508 13.932 10.527 25.057 19.794 37.064 27.73 9.953 6.584 13.532 14.28 13.507 26.532-0.435 207.084-0.312 414.162-0.312 621.24 0 5.78 0 11.556 0 17.874zM537.093 302.95c45.117-29.102 95.176-6.979 114.099 28.82 18.412 34.831 19.466 71.020 3.159 106.87-14.269 31.36-43.648 47.38-77.317 42.522-11.331-1.638-22.195-6.518-35.548-10.614 0 28.375 0 56.361 0 84.204-23.040 0-43.72 0-64.85 0 0-87.209 0-173.379 0-261.494 20.572 4.362 42.255-8.207 60.457 9.692zM230.021 293.591c18.816 0 35.461 0.942 51.942-0.287 13.824-1.024 19.502 3.85 22.979 17.347 11.505 44.585 12.088 44.431 57.083 42.977 0.538-0.020 1.244 0.215 1.592-0.046 4.444-3.364 11.013-5.914 12.836-10.383 5.238-12.867 8.033-26.711 12.923-39.741 1.495-3.978 6.543-9.216 10.158-9.375 20.721-0.896 41.503-0.43 64-0.43-25.4 82.191-50.007 162.089-75.1 241.848-1.024 3.256-6.595 7.117-10.143 7.214-23.583 0.64-47.196 0.328-71.997 0.328-25.313-82.79-50.473-165.074-76.273-249.452zM543.468 385.285c0 5.908-0.343 11.848 0.077 17.736 0.901 12.82 7.854 21.228 20.388 23.572 12.462 2.319 24.658-2.422 27.377-14.372 3.441-15.089 4.393-31.718 1.884-46.94-2.499-15.119-16.911-22.267-30.746-18.985-14.326 3.389-19.656 13.655-19.087 27.694 0.154 3.758 0.020 7.532 0.020 11.295 0.036 0 0.061 0 0.087 0zM346.189 462.362c5.007-17.531 10.020-35.057 15.401-53.908-11.438 0-21.294 0-33.224 0 4.946 18.273 9.779 36.147 14.612 54.021 1.070-0.036 2.14-0.077 3.21-0.113z" />
<glyph unicode="&#xe602;" d="M484.152 94.413c-136.218 164.214-272.43 328.428-410.824 495.263 8.325 0.379 13.225 0.799 18.12 0.799 83.773 0.041 167.547-0.102 251.32 0.205 9.907 0.036 15.217-1.864 18.079-12.836 41.021-157.384 82.58-314.624 123.981-471.905 0.865-3.292 1.295-6.692 1.93-10.035-0.876-0.492-1.746-0.993-2.606-1.49zM676.168 589.747c94.203 0 186.957 0 283.709 0-137.923-166.487-273.843-330.557-409.779-494.633-1.147 0.594-2.289 1.183-3.441 1.787 43.172 164.275 86.344 328.561 129.51 492.846zM514.642 105.646c-42.312 160.963-84.628 321.93-127.252 484.065 86.533 0 171.346 0 258.775 0-42.557-162.012-84.849-322.985-127.145-483.963-1.464-0.041-2.918-0.067-4.378-0.102zM340.833 620.442c-90.225 0-176.609 0-267.136 0 51.077 59.694 99.958 116.833 150.589 176.010 38.84-58.65 76.877-116.106 116.547-176.010zM809.016 796.14c50.232-58.639 99.226-115.84 150.17-175.314-89.748 0-176.41 0-266.097 0 39.137 59.177 77.056 116.531 115.927 175.314zM637.128 620.57c-81.751 0-159.442 0-240.625 0 40.719 59.612 79.846 116.884 120.284 176.082 40.494-59.249 79.473-116.28 120.34-176.082zM665.114 631.178c-40.525 59.274-79.667 116.506-120.315 175.964 80.005 0 156.759 0 236.657 0-39.286-59.423-77.21-116.792-116.342-175.964zM488.428 806.61c-40.259-58.89-79.222-115.896-119.916-175.432-38.851 58.701-76.774 116.009-116.106 175.432 78.976 0 155.756 0 236.022 0z" />
<glyph unicode="&#xe603;" d="M1000.826 387.813c-6.869-28.675-11.218-58.206-21.113-85.795-49.826-139.234-193.491-229.541-336.063-212.868-155.846 18.293-272.99 131.497-292.314 282.635-9.368 73.024 5.145 141.159 41.201 205.149 5.062 8.986 10.12 12.269 20.465 9.946 32.669-7.343 61.682-21.151 84.47-43.269-10.754-25.304-24.223-48.653-30.781-73.826-31.993-122.67 43.362-244.534 163.844-267.643 126.363-24.195 242.531 60.34 258.565 188.187 15.031 119.877-81.889 234.392-202.698 238.674-11.642 0.409-18.686 4.599-26.581 12.788-26.897 27.796-55.042 54.366-83.537 82.211 40.573 13.596 83.93 19.264 128.453 14.048 157.434-18.434 268.685-126.801 292.538-284.255 0.736-4.763 2.346-9.389 3.557-14.059-0.005-17.306-0.005-34.611-0.005-51.922zM50.872 439.74c7.365 29.783 12.188 60.454 22.504 89.166 49.047 136.348 193.484 225.956 334.65 209.257 155.35-18.374 273.203-131.689 292.194-280.629 9.378-73.63-4.692-142.408-41.097-206.949-5.085-8.991-10.17-12.347-20.465-9.989-32.581 7.468-61.687 21.234-84.061 42.909 10.955 26.848 24.283 51.566 31.151 77.928 30.927 118.841-43.962 238.799-162.901 263.672-120.575 25.194-237.556-54.343-257.873-175.284-21.659-128.825 72.964-245.417 204.106-251.886 5.581-0.257 12.558-2.084 16.269-5.826 14.834-14.851 27.765-31.615 43.035-45.953 15.161-14.244 32.319-26.411 50.869-41.272-45.048-15.15-88.992-20.028-134.214-15.423-156.015 15.903-274.398 139.402-290.622 284.321-0.524 4.785-2.324 9.34-3.541 14.033-0.005 17.311-0.005 34.616-0.005 51.927z" />
<glyph unicode="&#xe604;" d="M970.074 482.144c-5.619-14.257-11.138-28.544-16.867-42.754-11.999-29.818-32.18-39.031-62.427-28.659-28.769 9.877-26.233 7.012-48.866-13.094-25.346-22.518-34.367-42.215-16.021-73.913 9.417-16.265-0.216-35.465-17.399-45.532-15.769-9.244-32.524-17.295-49.688-23.587-21.339-7.816-39.677-0.102-51.757 19.328-2.809 4.511-5.85 9.256-7.060 14.3-4.352 18.186-15.612 23.325-32.74 18.867-1.711-0.45-3.587-0.692-5.31-0.486-33.253 4.099-57.7-2.863-67.008-41.155-4.25-17.498-24.437-24.138-42.733-19.345-17.678 4.625-35.241 10.578-51.89 18.067-22.33 10.026-30.118 29.212-23.241 53.022 3.277 11.341 7.683 22.359 11.579 33.521-2.741-2.515-5.484-5.038-8.237-7.552-14.065 18.486-27.834 37.214-42.549 55.163-2.189 2.676-8.863 1.775-13.496 2.283-1.038 0.121-2.21-0.766-3.295-1.266-20.44-9.473-42.248-23.698-63.027-5.634-23.425 20.366-35.454 48.828-37.204 79.863-1.116 19.681 13.068 31.811 30.186 37.588 21.364 7.204 31.252 18.816 23.39 41.507-0.185 0.544-0.207 1.197-0.109 1.769 5.073 31.803-1.909 53.799-38.188 63.269-21.624 5.645-27.754 28.801-20.639 52.035 3.822 12.459 8.499 24.669 13.309 36.792 11.513 29.026 33.234 38.777 62.921 28.619 28.491-9.743 26.181-7.169 47.474 11.961 25.204 22.63 36.052 43.111 17.24 75.636-9.078 15.711-0.355 34.499 16.143 44.149 16.775 9.829 34.605 18.519 52.958 24.792 22.942 7.834 40.874-2.254 53.16-26.393 14.463-28.426 14.63-24.992 45.327-26.532 32.871-1.646 53.742 4.892 62.567 40.163 2.479 9.939 19.758 16.182 30.24 24.12 2.388 0 4.763 0 7.14 0 17.745-6.226 35.741-11.794 53.182-18.816 24.335-9.789 38.214-29.591 27.864-51.561-15.32-32.479-2.6-48.584 21.462-67.762 24.945-19.873 23.051-22.237 52.415-10.211 26.335 10.812 46.581 5.512 59.356-17.764 8.779-15.985 15.848-33.077 21.948-50.279 6.25-17.631 1.311-37.454-14.931-42.919-38.831-13.084-43.963-39.011-36.521-73.163 0.243-1.122 0.167-2.414-0.121-3.533-4.68-18.336 3.975-26.936 21.094-30.981 19.659-4.634 33.754-16.394 40.378-36.072-0.010-5.952-0.010-11.896-0.010-17.848zM640.579 406.709c92.039-0.881 165.194 72.958 166.41 167.964 1.142 88.837-73.445 163.407-164.541 164.501-92.003 1.102-166.175-72.807-167.757-167.167-1.495-88.971 74.229-164.415 165.888-165.295zM56.959 243.17c3.511 8.088 6.89 16.228 10.53 24.261 7.498 16.531 18.942 22.427 35.894 15.657 13.047-5.212 22.275-5.084 29.45 8.262 2.152 4.027 6.11 7.318 9.82 10.217 7.608 5.944 9.086 11.587 4.634 21.198-11.473 24.74-6.69 34.648 19.776 46.873 29.8 13.769 38.12 11.567 51.11-15.163 3.988-8.187 8.262-12.507 17.622-9.499 2.781 0.889 5.959 1.434 8.804 1.038 17.006-2.328 28.651 1.266 33.883 20.685 3.662 13.598 16.577 17.94 30.509 14.029 7.974-2.239 15.769-5.273 23.39-8.547 17.215-7.387 23.727-18.436 16.613-35.2-6.43-15.142-3.46-24.185 10.035-31.82 3.481-1.966 6.299-5.478 8.79-8.761 5.447-7.169 11.11-9.331 19.736-4.501 11.906 6.661 27.498 11.631 35.695-0.909 9.536-14.558 14.843-32.722 17.988-50.054 0.898-4.972-11.018-14.658-18.852-18.262-10.744-4.933-14.162-11.042-11.653-21.893 0.793-3.422 1.53-7.227 0.868-10.595-2.809-14.439 1.711-22.294 16.81-26.999 18.033-5.624 22.651-18.344 16.928-36.792-1.759-5.655-4.061-11.138-6.262-16.641-8.068-20.125-19.328-26.709-38.71-18.69-13.129 5.44-20.833 3.357-27.629-8.248-2.040-3.492-5.173-6.711-8.534-9-10.163-6.935-10.744-14.162-5.205-25.32 10.1-20.338 5.273-31.437-15.126-41.556-5.317-2.63-10.649-5.278-16.156-7.478-17.809-7.115-30.841-3.422-37.858 14.328-5.624 14.216-13.73 17.41-27.124 14.693-4.571-0.936-9.559-0.826-14.2-0.151-9.049 1.311-12.785-2.63-17.379-10.524-6.102-10.493-16.090-18.72-24.412-27.91-1.19 0-2.375 0-3.565 0-8.79 3.341-17.599 6.651-26.365 10.062-22.37 8.695-27.854 18.904-19.365 41.172 4.128 10.829 3.061 17.734-6.69 23.803-3.959 2.464-7.816 5.726-10.493 9.512-7.327 10.334-14.834 12.178-26.734 5.959-7.003-3.647-21.517-5.707-24.513-1.966-11.042 13.794-21.694 29.408-26.709 46.074-4.303 14.328 9.807 22.114 22.066 28.294 4.455 2.239 10.859 8.058 10.38 11.411-2.684 19.028 6.055 44.257-24.828 49.944-4.845 0.898-8.685 7.292-12.991 11.149 0.005 5.959 0.005 11.896 0.005 17.848zM253.851 285.869c-55.26-0.045-100.2-44.505-100.239-99.162-0.039-53.882 45.532-99.454 98.716-98.706 55.613 0.778 99.649 45.15 99.266 100.034-0.365 53.056-45.131 97.881-97.738 97.834zM524.634 169.102c-9.228 26.621-7.27 30.762 11.727 38.851 9.929 4.23 16.613 2.564 22.778-6.375 9.228-13.403 25.564-12.634 34.012 1.639 6.831 11.567 15.828 10.185 26.121 6.401 10.479-3.837 17.668-8.954 14.834-22.154-3.334-15.524 9.237-27.14 24.767-22.892 12.814 3.511 18.553-2.839 23.147-13.251 4.824-10.921 6.367-19.806-6.367-27.107-11.755-6.751-11.203-26.242 0.898-32.16 12.643-6.18 13.319-14.257 9.116-26.225-4.501-12.83-11.018-18.486-25.204-14.921-11.707 2.941-25.541-12.114-21.023-23.2 6.038-14.796-1.719-20.489-13.026-25.938-11.289-5.447-19.713-5.23-26.805 7.020-6.572 11.333-26.162 10.138-32.283-2.049-6.651-13.227-15.866-11.653-26.859-7.683-11.429 4.128-18.238 9.499-13.976 23.705 3.808 12.718-10.867 25.541-24.156 21.451-13.469-4.147-19.689 1.983-24.681 13.237-4.972 11.183-5.718 19.825 6.719 27.018 11.541 6.684 10.885 26.299-1.038 32.039-12.634 6.076-13.794 14.257-9.162 26.121 4.334 11.127 9.269 17.295 23.418 15.96 8.34-0.793 17.455 6.503 27.039 10.509zM580.847 49.702c29.995 0.102 53.874 24.193 53.986 54.467 0.109 30.325-24.953 54.968-55.752 54.819-29.53-0.141-54.152-24.904-54.334-54.669-0.177-29.899 25.299-54.717 56.099-54.622z" />
<glyph unicode="&#xe605;" d="M154.629 388.014c0 79.299 0.589 158.607-0.358 237.896-0.292 24.243 8.704 39.521 29.722 51.379 102.374 57.769 204.385 116.178 306.099 175.109 19.937 11.556 36.992 11.909 57.093 0.113 101.402-59.474 203.208-118.241 305.244-176.614 19.22-10.998 27.372-25.487 27.305-47.575-0.476-160.307-0.2-320.614-0.302-480.916-0.020-31.401-10.010-37.581-36.5-22.528-57.759 32.814-115.092 66.386-173.097 98.775-20.982 11.709-29.681 27.402-29.281 51.707 1.152 69.903-0.179 139.843 0.712 209.756 0.317 24.94-8.571 42.317-30.418 54.257-23.153 12.662-45.85 26.194-68.408 39.905-17.039 10.353-33.382 10.532-50.473 0.174-22.579-13.676-45.435-26.916-68.362-40.003-21.151-12.078-31.104-29.164-30.776-54.308 0.922-70.758-0.266-141.548 0.655-212.316 0.292-22.303-7.987-37.059-26.993-47.821-59.29-33.577-118.164-67.886-177.439-101.484-23.429-13.276-34.232-6.508-34.324 21.473-0.266 81.009-0.092 162.017-0.097 243.021z" />
<glyph unicode="&#xe606;" d="M147.482-108.452c-1.469 0-2.934 0-4.403 0-3.297 0.788-6.646 1.080-10.025 1.111-1.782 0.020-3.656-0.169-4.782 1.71-1.070 3.779 2.063 4.721 4.306 6.011 14.833 8.561 28.564 18.591 40.428 30.971 27.402 28.631 43.402 62.628 47.846 102.062 1.362 12.068 1.367 24.1 0.2 36.157-0.584 6.031 1.797 9.8 7.020 10.516 35.814 4.9 70.205 14.694 103.127 29.655 2.831 1.29 5.801 2.806 8.443-0.481 1.198-2.99 0.927-6.139 0.942-9.242 0.072-15.032-0.031-30.070 0.056-45.102 0.051-9.032 1.956-10.911 11.095-10.941 21.448-0.061 42.9-0.041 64.353-0.010 3.113 0.010 6.287-0.102 8.786 2.278 3.092 6.021 3.707 12.611 3.738 19.139 0.148 33.531 0.307 67.077-0.113 100.608-0.092 7.404 2.688 12.539 7.532 17.341 20.68 20.5 38.134 43.51 53.171 68.388 3.599 5.96 7.107 11.986 10.076 18.289 2.437 5.161 6.001 7.47 12.063 7.409 30.234-0.276 60.477 0.015 90.716-0.22 8.136-0.061 15.928 2.499 24.018 2.202 29.409 1.618 54.758 12.723 76.308 32.701 2.534 2.35 4.772 5.012 7.398 7.281 12.652 3.348 24.407 8.888 35.692 15.34 20.869 11.935 38.451 27.689 52.782 47.012 1.992 2.693 4.762 4.408 7.368 6.349 19.548 0.538 39.132-0.246 58.414 4.659 27.878 7.086 52.854 19.4 74.353 38.625 4.5 4.024 9.021 7.967 12.928 12.657 4.27 5.12 7.864 4.367 10.578-1.951 7.142-16.64 16.604-31.805 28.483-45.471 22.257-25.6 49.874-42.696 82.324-52.321 5.13-1.521 11.1-1.219 15.022-5.929 0.148-0.65 0.21-1.29 0.189-1.951 0-95.575 0-191.13 0-286.669 0.154-21.181-1.198-42.071-10.051-61.87-21.033-47.119-55.941-78.408-105.539-92.969-8.218-2.412-16.937-2.058-25.441-2.811-1.597-0.138-3.302 0.522-4.797-0.538-1.101 0-2.202 0-3.302 0-1.905 1.029-3.963 0.532-5.939 0.532-259.809 0.031-519.619 0.031-779.433 0-1.966 0.005-4.029 0.507-5.929-0.527z" />
<glyph unicode="&#xe607;" d="M110.049 219.551c7.475 21.99 14.894 44.001 22.436 65.966 10.522 30.633 21.125 61.235 31.718 91.843 0.594 1.725 1.372 3.374 2.063 5.064 4.27 7.782 10.783 13.501 16.993 19.681 8.392 8.371 16.86 16.788 24.212 26.148 2.529 3.22 5.596 5.371 9.324 6.789 39.020 3.871 78.044 7.649 117.038 11.73 4.521 0.471 4.244-1.654 4.239-4.603-0.031-31.345-0.015-62.694-0.015-94.044 0-77.174 0-154.348-0.010-231.532 0-2.381-0.148-4.756-0.23-7.132-12.155-4.618-23.88-10.26-36.173-14.602-23.439-8.259-47.457-13.906-72.038-17.208-5.012-0.671-6.451-2.78-5.955-7.608 3.318-32.082-1.705-62.802-15.345-92.068-16.671-35.789-42.716-62.679-77.286-81.49-0.799-0.43-1.5-1.039-2.248-1.572-1.469-2.668-4.076-1.72-6.042-1.439-15.468 2.161-29.64 8.182-42.998 15.882-36.956 21.279-62.228 52.198-75.377 92.908-2.964 9.17-2.836 18.708-3.804 28.129-0.108 1.060 0.282 2.202-0.553 3.139 0 1.828 0 3.671 0 5.499 1.039 1.889 0.522 3.932 0.522 5.898 0.041 25.329 0.026 50.662 0.031 75.981 0.307 3.912 2.852 3.379 5.074 2.191 16.799-9.006 33.992-17.147 51.784-24.008 1.874-0.727 3.645-1.782 4.296-3.948-3.753-11.259-7.613-22.492-11.197-33.812-1.009-3.19-3.738-2.422-5.724-3.292-4.874-2.15-7.439-7.219-5.914-12.15 1.51-4.89 6.61-7.849 11.704-6.799 4.941 1.019 8.438 6.001 7.665 11.090-0.189 1.239-0.445 2.831-1.285 3.538-3.789 3.2-2.324 6.6-0.983 10.271 3.517 9.61 6.845 19.302 10.25 28.948 2.555 2.668 5.494 1.49 8.218 0.599 21.002-6.83 42.547-11.29 64.425-13.798 20.726-2.371 41.554-4.321 62.469-1.838 3.456 0.41 6.979-0.061 10.435 0.43 6.072 0.87 7.649 2.908 6.482 8.919-3.169 16.323-8.791 31.831-16.748 46.387-14.428 26.394-34.345 47.841-59.622 64.195-8.786 5.678-18.033 10.557-27.832 14.3-3.543 1.357-5.74 3.287-3.999 7.419z" />
<glyph unicode="&#xe608;" d="M0 752.205c0.374-0.072 0.748-0.143 1.116-0.215 3.482-0.84 5.898 1.541 8.509 3.011 35.302 19.937 72.724 33.782 112.957 39.69 9.861 1.449 9.795 1.812 4.449 10.532-2.038 3.328-6.124 6.298-3.932 11.244 27.796 14.797 55.572 29.629 83.395 44.39 18.442 9.789 36.92 19.502 55.409 29.199 1.859 0.973 3.855 3.108 5.975 1.469 1.807-1.403 0.558-3.784 0.189-5.693-24.817-128.548-49.659-257.091-74.496-385.633-3.338-17.26-6.651-34.524-10.020-51.773-0.435-2.243-0.538-4.562-3.901-4.992-3.062-0.389-5.381-2.36-8.745 0.799-54.973 51.512-110.141 102.815-165.299 154.132-1.695 1.572-2.985 3.789-5.606 4.163 0 49.889 0 99.784 0 149.678z" />
<glyph unicode="&#xe609;" d="M0 597.023c15.959-13.486 30.792-28.196 46.1-42.388 40.745-37.765 81.347-75.694 122.004-113.556 5.627-5.238 5.248-10.24-1.116-14.484-55.66-37.105-111.324-74.214-166.989-111.319 0 93.916 0 187.832 0 281.748z" />
<glyph unicode="&#xe60a;" d="M119.977 820.408c-20.316-10.875-40.591-21.827-60.964-32.604-19.241-10.179-38.579-20.173-57.871-30.249-1.111 1.879-0.553 3.942-0.558 5.908-0.046 19.953-0.010 39.905-0.056 59.853-0.005 1.976 0.512 4.029-0.527 5.924 0 1.469 0 2.939 0 4.403 0.993 4.818 0.876 9.733 1.311 14.602 2.299 25.631 13.542 47.565 28.672 67.635 19.671 26.102 45.036 44.687 76.109 55.219 2.852 0.968 5.944 2.58 8.535-0.712 1.669-2.335 0.543-4.547-0.276-6.784-7.204-19.62-11.453-39.875-11.377-60.769 0.097-25.431 5.417-49.843 16.374-72.924 1.434-3.011 4.014-6.103 0.63-9.503z" />
<glyph unicode="&#xe60b;" d="M1.116 122.65c0-25.39 0.010-50.78-0.015-76.17 0-2.519 0.476-5.151-1.101-7.45 0 90.609 0 181.228 0 271.841 0.374-0.102 0.748-0.205 1.116-0.312 2.934-1.649 2.437-4.582 2.616-7.204 0.23-3.42-0.087-6.845-0.159-10.266 0.43-23.813 0.358-47.631 0.051-71.439 0.42-30.362 0.174-60.728 0.118-91.090-0.005-2.842 0.415-6.001-2.627-7.91z" />
<glyph unicode="&#xe60c;" d="M0 829.24c1.562-2.309 1.096-4.936 1.101-7.465 0.031-21.407 0.031-42.813 0.036-64.22-0.374-0.317-0.753-0.635-1.137-0.952 0 24.212 0 48.43 0 72.637z" />
<glyph unicode="&#xe60d;" d="M1085.015 514.391c2.063-0.768 2.376-2.365 2.376-4.372-0.102-57.236-0.148-114.478-0.21-171.709-27.489 4.649-51.917 16.236-73.979 33.009-24.458 18.601-42.23 42.399-54.154 70.63-1.423 3.379-2.857 3.789-5.381 0.952-29.983-33.761-68.106-51.753-112.476-56.75-11.704-1.316-23.736-1.572-35.543 0.63-0.21 0.225-0.42 0.451-0.635 0.671-1.382 3.297 0.881 5.612 2.33 8.028 11.689 19.389 18.596 40.417 22.098 62.72 4.050 25.825 1.178 51-6.359 75.817-0.261 0.876-0.532 1.751-0.778 2.627-2.002 6.922-1.649 7.475 5.32 8.484 1.065 0.696 2.642 1.152 3.118 2.135 3.308 6.769 8.822 4.449 14.003 3.651 33.925-5.233 67.85-10.465 101.775-15.703 3.19-1.26 3.512-3.712 3.092-6.738-2.621-19.082-1.080-37.965 2.877-56.724 0.876-4.132 1.997-8.187 3.231-12.216 0.532-1.71 0.712-3.907 2.949-4.193 2.13-0.271 3.128 1.669 4.214 3.082 8.090 10.532 14.254 22.18 19.415 34.355 3.789 8.95 6.728 18.207 9.042 27.658 0.64 2.642 1.070 5.453 3.589 7.183 16.282-2.376 32.558-4.746 48.84-7.137 13.752-2.007 27.5-4.055 41.247-6.088z" />
<glyph unicode="&#xe60e;" d="M754.191 98.273c-0.061-39.777-31.898-71.444-71.782-71.383-39.209 0.041-71.265 32.23-71.229 71.532 0.036 39.465 32.44 71.67 71.926 71.491 39.352-0.184 71.148-32.215 71.086-71.639z" />
<glyph unicode="&#xe60f;" d="M911.442 98.452c0.031-39.777-31.805-71.593-71.598-71.567-39.27 0.020-71.352 32.061-71.429 71.352-0.092 39.419 32.276 71.741 71.762 71.67 39.332-0.072 71.235-32.056 71.265-71.455z" />
<glyph unicode="&#xe610;" d="M429.24 41.231c0.020 76.298 0.102 152.602-0.061 228.9-0.010 5.366 1.408 6.625 6.682 6.61 62.909-0.159 125.819-0.051 188.728-0.026 0.916 0 1.828-0.097 2.744-0.154-2.586-1.3-5.386-0.942-8.105-0.942-35.2-0.020-70.4-0.159-105.59 0.118-6.144 0.051-9.472-1.782-12.303-7.409-13.056-25.989-29.532-49.69-48.881-71.45-5.734-6.451-11.668-12.672-17.853-18.642-3.18-3.072-4.337-6.39-4.326-10.721 0.108-39.414 0.072-78.828 0.046-118.241 0-2.714 0.476-5.524-1.080-8.044z" />
<glyph unicode="&#xe611;" d="M711.281 317.43c14.51 17.613 24.212 37.437 27.812 60.114 1.531 9.646 1.398 19.364 1.72 29.066 2.079 2.33 4.332 1.275 6.472 0.23 16.64-8.12 34.063-13.752 52.326-16.84 2.237-0.379 4.833-0.543 6.001-3.159l0.041-0.061c-8.863-12.611-19.062-24.125-30.612-34.248-18.632-16.323-39.613-28.657-63.759-35.103z" />
<glyph unicode="&#xe612;" d="M1087.191 565.094c0.061-14.29 0.056-28.58 0.22-42.87 0.026-2.591-0.783-3.758-3.379-3.564-28.959 4.541-57.928 9.078-86.892 13.619-3.236 2.355-2.749 5.75-2.401 9.016 2.391 22.477 0.22 44.518-6.18 66.166-0.512 1.715-0.783 3.86-2.836 4.388-2.468 0.635-3.487-1.577-4.634-3.133-13.102-17.741-21.99-37.458-27.52-58.752-0.957-3.686-1.398-7.644-4.869-10.127-16.092 2.34-32.189 4.613-48.271 7.030-20.429 3.072-40.832 6.308-61.271 9.329-2.908 0.43-4.931 1.213-6.538 3.988-2.212 3.804-6.072 5.545-10.368 4.183-3.041-0.963-4.71 0.005-6.589 2.079-5.53 6.088-11.192 12.052-16.799 18.063-2.698 4.874-7.020 8.351-10.665 12.411-3.994 4.449-3.937 5.453-0.113 9.933 15.857 18.627 28.16 39.214 35.379 62.756 4.931 16.072 7.148 32.512 8.049 49.198 0.241 4.388-0.266 8.796 0.292 13.179 0.184 0.548 0.492 1.019 0.911 1.408 4.792 2.289 9.836 0.87 14.541 0.241 38.938-5.222 72.801-21.115 100.731-49.060 3.052-3.046 6.252-5.949 8.192-8.468-3.072 6.769-4.92 15.027-6.482 23.352-0.41 2.217 0.072 4.408 2.243 5.791 2.156 1.347 4.291 0.522 6.369-0.128 20.352-6.369 41.221-8.581 62.428-7.373 20.321 1.157 39.762 6.175 58.414 14.295 2.55 1.106 5.176 3.338 8.044 0.522 0-11.361 0-22.728 0-34.089-1.741-2.412-4.362-3.226-7.071-3.845-27.909-6.364-52.326-19.538-74.020-38.011-3.072-2.616-5.898-5.494-8.643-8.438-3.553-3.804-3.615-5.847-0.266-10.051 4.49-5.627 10.199-9.974 15.657-14.572 20.096-16.937 43.064-28.247 68.465-34.708 2.452-0.63 4.321-1.874 5.873-3.758z" />
<glyph unicode="&#xe613;" d="M273.101 522.107c-18.857-17.669-37.704-35.354-56.576-53.007-9.472-8.863-18.995-17.669-29.793-27.709 2.309 12.16 4.275 22.651 6.298 33.132 16.379 84.721 32.758 169.436 49.147 254.147 10.163 52.521 20.352 105.037 30.546 157.548 1.167 6.006 3.476 6.984 8.535 3.604 3.645-2.437 7.168-5.043 10.752-7.578-0.604-4.173-3.963-3.666-6.789-3.901-6.871-0.563-7.332-1.203-4.664-7.716 11.556-28.232 20.797-57.16 26.138-87.25 0.737-4.137 2.862-6.968 6.845-8.545 3.738-1.48 7.624-2.673 10.767-4.782-17.971 24.658-28.851 52.321-32.169 83-0.794 7.322-1.116 14.607-0.901 21.934 0.067 2.278-0.343 4.951 2.637 6.042 14.966-9.892 29.967-19.732 44.897-29.681 17.669-11.766 35.277-23.613 53.023-35.497-1.403-1.92-3.19-1.132-4.649-1.137-14.295-0.072-28.595-0.287-42.88 0.087-5.258 0.138-6.339-1.669-6.298-6.533 0.164-21.985-0.056-43.976-0.133-65.961-3.753-5.284-9.876-5.975-15.36-7.767-8.356-2.724-8.735-3.395-8.443-12.006 1.582-47.38-3.548-93.967-16.911-139.551-4.751-16.195-10.47-32.020-16.901-47.621-1.951-4.7-5.432-8.474-7.117-13.251z" />
<glyph unicode="&#xe614;" d="M649.211 548.588c0.072-20.884 0.108-41.774 0.246-62.659 0.015-2.606-0.568-4.040-3.507-4.316-34.831-3.292-69.642-6.671-104.458-10.020-0.358-0.036-0.732 0.067-1.096 0.108-1.997 1.382-2.463 3.441-2.765 5.709-3.072 23.491-8.049 46.556-15.263 69.14-1.505 4.716-3.41 9.283-4.915 13.998-0.44 1.362-0.829 3.128-2.509 3.313-2.038 0.22-2.586-1.751-3.348-3.149-8.412-15.432-13.727-31.913-16.942-49.157-2.299-12.339-2.289-24.776-2.217-37.233 0.026-4.178-0.737-7.767-5.96-8.049-17.505-1.787-35.021-3.441-52.495-5.458-4.306-0.502-4.746 1.147-4.736 4.741 0.108 35.395 0.067 70.789 0.067 106.179 0 28.058 0.051 56.115-0.067 84.173-0.015 3.579 0.84 6.205 3.661 8.576 5.463 4.588 10.634 9.523 15.928 14.316 3.988-0.072 6.118-2.975 8.361-5.596 22.39-26.179 40.934-54.835 55.419-86.103 0.312-0.666 0.62-1.326 0.963-1.981 2.237-4.378 3-4.526 5.868-0.753 2.78 3.635 5.54 7.296 8.499 10.778 2.57 3.026 5.028 6.441 9.631 6.625 5.714-1.71 9.17-6.518 13.42-10.122 25.482-21.581 54.579-34.857 87.68-39.455 3.645-0.492 7.839-0.056 10.537-3.604z" />
<glyph unicode="&#xe615;" d="M619.668 974.464c1.101 1.659 2.575 2.263 4.618 2.258 22.728-0.067 45.455-0.031 68.178-0.082 1.434 0 2.867-0.502 4.301-0.768 34.212-15.002 68.429-29.998 102.646-45 1.51-0.66 3.011-1.347 4.531-1.981 3.748-1.572 3.405-3.139 0.184-5.084-8.929-5.412-17.792-10.947-26.691-16.415-40.591-24.934-81.188-49.859-121.789-74.778-0.62-0.379-1.321-0.625-1.981-0.932-5.509-0.957-10.691-3.441-16.481-3.267-2.35 0.072-4.101-1.684-4.838-3.917-1.055-3.185-3.164-5.755-4.69-8.653-1.434-1.536-3.333-1.27-5.14-1.27-21.975 0.015-43.955 0.041-65.935 0.092-5.996 0.010-6.026 0.067-3.599 5.668 21.893 50.529 43.807 101.043 65.705 151.572 0.369 0.835 0.66 1.705 0.983 2.555z" />
<glyph unicode="&#xe616;" d="M110.049 219.551c0.251-3.528 3.174-4.091 5.683-5.13 40.945-17.050 70.968-45.86 91.090-85.12 7.301-14.249 12.032-29.46 15.017-45.22 0.932-4.92 0.072-7.48-5.612-7.972-18.606-1.572-37.135-2.248-55.859-1.029-24.781 1.608-49.065 5.571-73.042 11.761-7.086 1.828-14.075 4.060-21.105 6.098 11.889 34.642 23.757 69.279 35.676 103.905 2.621 7.603 5.432 15.135 8.151 22.707z" />
<glyph unicode="&#xe617;" d="M627.712 725.919c11.919-1.838 21.294-11.812 21.55-24.003 0.328-15.877 0-31.77-0.041-47.657-1.649-2.386-3.814-3.487-6.82-3.84-37.878-4.536-70.83-19.625-98.309-46.29-2.022-1.961-4.019-3.779-7.132-3.256-2.412-0.307-4.168 0.701-5.75 2.473-22.963 25.846-37.074 55.885-42.68 89.953-0.604 3.676-0.507 7.311 1.812 10.527 1.428 2.304 3.881 2.627 6.185 3.108 16.758 3.512 32.717 9.257 48.067 16.794 3.318 1.628 6.948 2.596 10.711 2.601 23.429 0.015 46.853 0.015 70.282 0.005 0.732 0 1.449-0.092 2.125-0.415z" />
<glyph unicode="&#xe618;" d="M1.106 221.732c0.005 23.839 0.010 47.677 0.015 71.511 1.956 2.35 4.541 3.589 7.419 4.46 46.413 14.090 88.955 35.896 128.108 64.42 5.478 3.983 10.522 8.576 16.23 12.237 2.007 1.285 5.12 3.18 4.593-2.053-6.943-20.393-13.85-40.812-20.838-61.189-10.020-29.204-20.096-58.388-30.172-87.578-0.594-1.72-1.367-3.379-2.053-5.059-2.166-1.577-4.444-1.121-6.794-0.492-18.324 4.91-36.92 7.25-55.936 6.6-10.865-0.369-21.448-2.284-32.031-4.419-3.072-0.63-6.164-1.541-8.54 1.562z" />
<glyph unicode="&#xe619;" d="M805.606 386.842c-19.471 1.444-37.627 7.578-55.276 15.508-3.169 1.428-6.344 2.842-9.518 4.26-0.061 33.869-0.092 67.732-0.261 101.591-0.010 2.908 1.239 4.142 3.63 5.268 22.989 10.839 45.942 21.77 68.89 32.701 2.222 1.060 4.209 1.848 6.559 0.020 2.34-1.823 5.268-1.044 7.992-1.065-3.942-1.167-4.209-3.512-2.949-7.137 6.318-18.145 9.702-36.941 9.431-56.095-0.44-31.519-8.12-61.235-24.719-88.356-1.341-2.181-2.524-4.465-3.779-6.697z" />
<glyph unicode="&#xe61a;" d="M541.501 466.924c34.294 3.41 68.588 6.774 102.881 10.276 3.548 0.364 5.171 0.056 5.14-4.255-0.2-26.23-0.005-52.46-0.148-78.689-0.077-14.1-10.168-25.917-23.752-26.271-29.501-0.773-59.028-0.65-88.55-0.041-3.108 2.739-2.473 6.231-1.915 9.687 3.635 22.426 5.233 44.984 4.726 67.697-0.097 4.204-0.22 8.392-0.701 12.58-0.374 3.21-0.952 6.666 2.319 9.016z" />
<glyph unicode="&#xe61b;" d="M840.771 829.46c15.693 10.788 31.355 21.632 47.094 32.353 18.785 12.8 37.652 25.472 56.433 38.277 2.243 1.531 4.101 2.698 6.866 0.916 1.644-1.060 4.035-1.536 5.837-0.471 4.214 2.488 6.979 0.389 9.979-2.284 5.612-4.992 11.412-9.759 17.142-14.618 2.811-6.149-0.998-11.366-2.929-16.502-14.572-38.723-39.552-68.997-75.136-90.22-9.38-5.591-18.975-10.885-29.824-13.578-5.284-1.311-8.52 0.579-11.259 4.393-8.719 12.134-15.309 25.405-20.541 39.363-1.802 4.803-3.4 9.692-4.777 14.638-0.763 2.729-1.080 5.412 1.116 7.731z" />
<glyph unicode="&#xe61c;" d="M113.321 970.271c4.157 1.787 8.453 3 12.995 3.251 4.234 0.768 6.205-2.028 8.049-5.064 8.581-14.141 18.77-26.926 30.853-38.303 19.415-18.289 41.964-30.93 67.364-38.682 2.273-0.696 4.593-1.244 6.717-2.335 2.028-1.044 3.282-2.417 1.715-4.777-22.712-12.114-45.394-24.294-68.147-36.326-17.587-9.298-35.261-18.422-52.9-27.622-1.009 6.671-5.207 12.017-7.557 18.15-8.755 22.84-13.153 46.454-12.119 70.851 0.799 18.898 4.654 37.33 11.418 55.081 0.717 1.859 1.091 3.845 1.613 5.775z" />
<glyph unicode="&#xe61d;" d="M1003.837 862.566c6.989-0.824 10.849-5.852 14.966-10.778 18.565-22.226 37.284-44.334 55.926-66.499 2.115-2.519 4.096-5.146 6.139-7.726 0.169-2.432-1.029-4.152-2.801-5.642-30.863-25.953-66.181-41.068-106.578-43.832-6.994-0.476-13.988-0.988-20.972 0.23-0.891 0.287-1.761 0.599-2.458 1.26-0.778 0.993-1.29 2.099-1.341 3.379-0.922 29.42 6.431 56.924 19.599 82.985 8.218 16.251 19.379 30.433 31.882 43.602 1.603 1.69 3.389 2.708 5.637 3.021z" />
<glyph unicode="&#xe61e;" d="M1.106 221.732c9.733 1.613 19.41 3.794 29.204 4.731 25.19 2.401 50.038 0.589 74.097-7.992-10.071-29.409-20.096-58.834-30.223-88.223-4.045-11.735-8.31-23.404-12.472-35.103-10.967 2.929-21.233 7.685-31.432 12.493-9.882 4.664-19.451 9.984-29.158 15.017-0.010 33.024-0.010 66.048-0.015 99.077z" />
<glyph unicode="&#xe61f;" d="M300.652 975.416c1.459 1.449 3.318 1.306 5.146 1.306 20.306 0.005 40.617 0.010 60.923 0.031 1.848 0 3.651-0.051 5.228-1.198 24.177-27.991 48.358-55.982 72.52-83.983 2.028-2.35 3.922-4.808 5.878-7.219-0.783-3.149-4.664-3.538-5.729-6.441-40.448 5.606-80.901 11.187-121.344 16.829-10.68 1.49-21.335 3.164-32.005 4.751 5.642 14.792 8.274 30.602 15.201 44.959 1.654 3.425 0.251 6.349-1.664 9.196-2.79 4.152-6.502 7.839-6.799 13.271 0.886 2.836 1.766 5.668 2.647 8.499z" />
<glyph unicode="&#xe620;" d="M833.111 732.37c2.12-6.257 1.331-12.728 0.942-19.046-2.57-41.324-16.773-77.972-44.728-108.882-3.144-3.476-0.773-5.668 1.121-8.003 3.082-3.794 7.188-6.83 8.422-11.924-18.929 19.61-37.852 39.224-56.812 58.798-1.633 1.684-1.403 3.645-1.434 5.632-0.307 20.48 0.763 40.98-0.886 61.445 1.413 2.412 3.308 4.188 5.862 5.519 19.712 10.281 40.632 16.23 62.761 18.207 6.011 0.538 11.996 1.254 18.033 0.911 2.499-0.133 5.238 0.133 6.717-2.657z" />
<glyph unicode="&#xe621;" d="M261.857 504.771c19.645 18.437 39.291 36.874 58.952 55.301 5.32 4.987 10.68 9.923 15.995 14.848 1.879-1.352 1.229-2.949 1.229-4.28 0.041-37.965-0.026-75.924 0.123-113.889 0.015-3.907-0.988-5.443-5.007-5.816-35.768-3.333-71.521-6.851-107.284-10.301-1.091-0.102-2.191-0.041-3.292-0.061-2.693 1.879-2.801 1.951-0.824 5.069 3.333 5.258 7.199 10.158 10.803 15.232 5.734 8.074 11.238 16.287 16.077 24.914 3.799 6.784 8.468 12.902 13.23 18.985z" />
<glyph unicode="&#xe622;" d="M718.904 783.002c16.497 24.054 33.044 48.067 50.248 71.624 2.104 0.927 3.784 0.236 5.504-1.132 7.849-6.252 15.299-12.846 19.553-21.094-3.804 4.849-6.313 11.423-8.596 18.063-2.406 7.020-5.248 14.003-4.229 21.714 10.276 14.843 20.557 29.676 30.802 44.534 1.121 1.623 2.36 2.621 4.48 2.483 1.628-0.108 3.538-0.067 4.659 1.188 5.33 5.975 11.412 3.318 17.48 1.833 1.715-0.42 3.548-0.358 5.335-0.517 2.765-2.145 1.812-4.951 1.193-7.578-2.048-8.545-3.932-17.116-5.064-25.851-1.894-14.623-1.444-29.22 0.364-43.791 0.415-3.354 0.42-6.543-0.922-9.667-24.003-16.404-47.985-32.829-72.013-49.193-7.849-5.34-15.816-10.516-23.726-15.77-10.26 0.742-18.161 6.001-25.068 13.153z" />
<glyph unicode="&#xe623;" d="M537.068 601.426c9.754 9.093 19.471 18.202 30.843 25.38 22.958 14.49 47.718 23.7 74.808 26.424 2.181 0.215 4.332 0.686 6.502 1.034-0.005-35.22-0.010-70.446-0.010-105.672-20.429 0.732-39.69 6.257-58.291 14.382-20.388 8.914-37.699 22.323-53.878 37.35-0.307 0.251-0.404 0.497-0.302 0.742 0.113 0.236 0.22 0.358 0.328 0.358z" />
<glyph unicode="&#xe624;" d="M531.599 367.944c-18.514-0.108-37.028-0.246-55.542-0.307-13.942-0.051-27.878 0.102-41.815-0.082-3.763-0.046-5.043 1.060-5.018 4.956 0.154 26.404 0.077 52.813 0.082 79.222 0 2.161-0.461 4.296 2.99 4.603 19.523 1.751 38.973 4.332 58.563 5.381 3-1.654 3.215-4.741 3.681-7.567 4.859-29.537 17.080-55.752 35.594-79.135 1.674-2.099 4.132-4.065 1.464-7.071z" />
<glyph unicode="&#xe625;" d="M241.024 884.362c-1.469 2.842-4.434 3.067-6.994 3.809-44.616 12.938-78.351 39.869-102.313 79.406-1.418 2.34-2.545 4.92-5.402 5.949 9.416 2.775 19.092 3.21 28.815 3.313 19.466-0.108 38.932-0.215 58.399-0.317 5.135-2.15 8.12-6.579 11.336-10.752 13.092-16.947 24.745-34.836 35.308-53.453 1.49-2.627 1.894-5.463 2.739-8.223 1.531-6.994-2.002-10.537-8.156-12.913-4.746-1.833-9.17-4.521-13.732-6.82z" />
<glyph unicode="&#xe626;" d="M273.101 522.107c-1.449 3.195 0.737 5.709 1.859 8.223 16.589 37.217 27.474 76.083 32.753 116.398 3.512 26.829 5.545 53.842 2.714 80.937-0.451 4.337 0.896 6.758 5.371 7.926 7.419 1.93 14.689 4.434 22.026 6.702 0.082-5.494 0.225-10.982 0.23-16.476 0.020-46.172-0.020-92.349 0.077-138.527 0.005-3.564-0.952-6.093-3.645-8.561-20.541-18.78-40.94-37.724-61.384-56.622z" />
<glyph unicode="&#xe627;" d="M157.471 372.301c-2.893 2.519-4.265-0.778-5.652-1.9-10.696-8.607-21.796-16.65-33.285-24.136-34.54-22.497-71.424-39.997-110.976-51.743-2.084-0.62-4.28-0.86-6.426-1.28 0 5.775 0 11.551-0.005 17.321 42.916 28.672 85.832 57.344 128.753 86.011 13.548 9.047 27.095 18.084 40.694 27.049 1.372 0.911 2.76 3.18 4.593 1.756 1.556-1.213-0.102-3.077-0.594-4.49-5.637-16.22-11.382-32.399-17.101-48.589z" />
<glyph unicode="&#xe628;" d="M421.524 814.935c-5.862-0.082-11.72-0.148-17.582-0.256-1.93-0.036-3.543 0.722-5.094 1.756-38.374 25.702-76.749 51.4-115.123 77.107-0.558 0.374-1.055 0.85-1.311 2.278 7.649-0.993 15.309-1.93 22.948-2.99 44.457-6.19 88.909-12.411 133.356-18.647 1.26-0.179 2.478-0.604 3.722-0.911 2.401-2.028 1.725-4.69 1.249-7.132-3.174-16.23-9.001-31.508-16.594-46.177-1.295-2.504-3.727-3.348-5.571-5.028z" />
<glyph unicode="&#xe629;" d="M1003.837 862.566c-6.682-8.899-14.991-16.415-21.489-25.482-18.842-26.301-30.182-55.347-32.671-87.752-0.41-5.279-1.188-10.527-0.978-15.841-4.552-1.357-6.308-0.302-6.861 4.434-0.906 7.711 0.118 15.365 1.29 22.953 5.74 37.228 21.407 69.724 46.868 97.495 0.86 0.947 1.782 1.848 2.458 2.944 1.761 2.852 1.331 5.473-1.572 7.035-3.379 1.828-4.050-1.357-4.818-3.42-5.821-15.529-13.722-29.926-23.388-43.372-15.642-21.755-35.241-39.009-58.742-51.866-5.949-3.251-12.022-6.236-18.248-8.904-3.748-1.603-7.649-2.258-11.72-1.823-4.987 0.502-9.948 0.758-14.812-0.896-0.548 0-1.080 0.113-1.597 0.323-11.254 6.364-20.68 14.93-29.532 24.238-3.425 3.594-6.738 7.229-9.068 11.228 7.148-9.329 9.861-20.818 12.626-32.236 1.434-5.929-1.505-9.585-7.675-9.805-23.332-0.845-46.013 2.652-67.937 10.732-2.555 0.942-6.016 1.239-6.497 5.064 30.182 20.982 60.529 41.708 91.279 61.85 4.782-21.97 13.952-41.984 26.552-60.559 2.98-4.393 6.108-4.828 10.726-3 37.437 14.812 66.565 39.357 87.444 73.795 8.351 13.768 13.921 28.652 18.632 43.935 4.547-3.651 9.083-7.316 13.64-10.957 3.297-2.627 2.678-7.578 6.088-10.112z" />
<glyph unicode="&#xe62a;" d="M595.517 930.299c-7.388-17.306-14.73-34.637-22.175-51.922-8.392-19.482-16.865-38.927-25.303-58.383-2.826-6.502-2.867-6.533-8.591-1.946-4.127 3.308-8.161 6.733-12.242 10.112-0.963 2.652 0.328 4.521 2.074 6.333 3.436 3.564 7.086 6.917 10.424 10.563 3.098 3.389 2.877 4.915-1.091 7.296-14.377 8.622-27.438 18.883-39.025 31.002-2.345 2.452-4.787 4.526-8.52 4.209-1.572-0.133-2.872 0.502-3.395 2.176 1.838 1.459 3.676 2.913 5.519 4.367 8.243 1.152 15.601 4.879 23.050 8.202 19.891 8.873 37.54 21.012 52.69 36.756 5.381 5.591 5.78 5.53 12.79 2.263 3.645-1.695 7.25-3.471 10.808-5.34 2.33-1.219 3.686-2.903 2.985-5.688z" />
<glyph unicode="&#xe62b;" d="M839.721 834.806c-5.151 24.038-4.408 48 0.963 71.895 1.126 5.007 2.304 9.999 3.461 14.991 14.341-1.838 28.687-3.615 43.018-5.535 18.145-2.427 36.285-4.961 54.42-7.491 1.183-0.164 2.796 0.276 3.384-1.203 0.66-1.644-0.916-2.196-1.905-2.867-34.437-23.276-68.895-46.531-103.342-69.791z" />
<glyph unicode="&#xe62c;" d="M740.828 516.854c0 40.499 0 80.184 0 120.003 2.381-0.051 3.169-1.951 4.332-3.159 22.472-23.373 44.892-46.797 67.308-70.221 4.541-4.746 3.42-11.126-2.406-13.891-20.997-9.964-41.989-19.927-62.986-29.88-1.792-0.86-3.615-1.659-6.246-2.852z" />
<glyph unicode="&#xe62d;" d="M668.027 834.76c24.177 14.966 48.338 29.952 72.535 44.882 5.11 3.154 10.342 6.098 15.519 9.139 2.161-2.765-0.215-4.342-1.7-6.011-8.090-9.119-8.028-8.975 2.488-15.78 3.502-2.263 8.11-3.907 8.33-9.277-15.089-21.729-30.182-43.459-45.292-65.172-1.449-2.089-3.052-4.070-4.582-6.103-2.273-0.328-4.157 0.225-6.072 1.69-14.761 11.279-27.372 24.586-38.031 39.767-1.464 2.094-2.862 4.229-3.195 6.866z" />
<glyph unicode="&#xe62e;" d="M749.491 767.611c14.321-5.105 28.774-9.692 43.95-11.53 9.984-1.213 19.988-2.135 30.070-1.628 5.612 0.282 6.641 1.705 5.289 7.322-2.632 10.88-6.17 21.443-11.218 31.468-1.29 2.555-2.54 5.12-3.338 7.982 5.309-5.791 10.68-11.397 15.959-17.070 8.525-9.17 18.488-16.553 28.268-24.207-0.169-2.488-1.951-3.261-3.994-3.804-3.876-1.034-7.793-1.802-11.776-2.33-7.214-0.957-8.602-2.862-7.69-10.204 0.481-3.907 1.997-7.977-1.828-11.177 0 0-0.067-0.061-0.072-0.061-31.089 0.686-60.692-5.197-88.32-19.907-1.597-0.85-3.369-1.388-5.059-2.068-2.35 13.537-5.888 26.706-12.38 38.912-1.121 2.094-0.701 3.241 1.167 4.454 7.020 4.567 13.988 9.226 20.972 13.85z" />
<glyph unicode="&#xe62f;" d="M537.068 601.426c-0.005-0.369-0.015-0.737-0.020-1.101-7.547-6.057-12.723-14.080-18.196-21.857-3.072-4.372-3.584-4.419-5.75 0.584-13.332 30.787-30.694 59.1-51.927 85.053-4.055 4.951-8.223 9.805-12.344 14.705 7.782 7.977 16.005 15.483 24.433 22.769 5.458 2.514 10.9 5.217 17.009 1.9 0.189-0.276 0.379-0.548 0.563-0.824 1.49-27.003 10.86-51.379 24.934-74.127 6.072-9.815 12.882-19.103 21.299-27.1z" />
<glyph unicode="&#xe630;" d="M486.477 466.273c3.62 1.628 3.389 4.864 3.272 7.997-0.727 19.364 1.080 38.4 6.656 57.047 3.855 12.902 9.472 25.001 15.949 36.731 0.732 1.321 1.28 3.512 3.287 3.169 1.577-0.271 1.608-2.294 2.125-3.615 11.228-28.641 18.529-58.286 22.472-88.765 0.302-2.345 0.118-4.762 0.164-7.142-17.981-1.807-35.953-3.615-53.924-5.422z" />
<glyph unicode="&#xe631;" d="M531.599 367.944c-1.249 4.234-4.859 6.794-7.332 10.143-18.427 24.991-30.162 52.598-33.408 83.63 13.245 1.439 26.486 2.898 39.731 4.301 3.625 0.384 7.27 0.604 10.906 0.901 0.609-11.32 1.208-22.636 1.162-33.997-0.082-18.898-1.889-37.612-4.808-56.248-0.451-2.877-0.532-5.821-0.778-8.73-1.823-0.451-3.651-0.456-5.473 0z" />
<glyph unicode="&#xe632;" d="M994.929 527.621c-0.829-13.599-5.914-26.025-11.1-38.308-5.709-13.527-13.138-26.173-22.518-37.56-1.085-1.311-1.644-3.743-3.942-3.256-1.828 0.389-1.981 2.473-2.468 3.994-8.079 25.047-11.479 50.591-7.931 76.836 0.282 2.048 0.527 3.983-0.451 5.883 16.169-2.309 32.369-4.434 48.41-7.588z" />
<glyph unicode="&#xe633;" d="M948.7 539.843c4.608 26.88 15.56 51 31.831 72.755 1.751 2.335 2.877 6.707 6.303 5.965 2.785-0.604 2.693-4.849 3.548-7.557 7.327-23.178 9.651-46.868 6.953-71.045-0.282-2.54-0.138-5.12-0.2-7.68-16.143 2.524-32.297 5.043-48.435 7.562z" />
<glyph unicode="&#xe634;" d="M419.564 976.681c12.39-0.051 24.776-0.102 37.166-0.148 2.406-1.746 3.174-4.352 3.758-7.071 3.676-17.075 9.631-33.295 18.299-48.486 1.644-2.883 2.749-5.903 2.232-9.308-4.705-8.463-9.467-16.896-14.090-25.411-1.055-1.94-2.478-2.299-4.475-2.355-2.765-0.082-3.205 1.966-3.994 3.768-11.612 26.47-23.219 52.946-34.811 79.427-1.398 3.18-2.724 6.39-4.086 9.585z" />
<glyph unicode="&#xe635;" d="M1087.539 821.576c-0.082-14.597-0.159-29.189-0.246-43.781-14.577 17.126-29.174 34.227-43.725 51.374-9.088 10.711-18.099 21.484-27.75 32.952 5.76-0.266 10.158-1.961 14.659-3.082 16.85-4.198 33.654-8.586 50.529-12.692 3.569-0.865 4.992-2.371 5.391-6.185 0.65-6.195 0.916-12.38 1.142-18.586z" />
<glyph unicode="&#xe636;" d="M595.517 930.299c-5.222 5.171-12.36 6.845-18.621 10.122-2.55 1.336-4.029-1.055-5.458-2.58-15.222-16.21-33.132-28.616-53.35-37.704-5.827-2.616-11.863-4.762-17.751-7.25-2.734-1.157-4.966-0.399-7.142 1.219 24.090 19.052 48.169 38.103 72.259 57.149 10.332 8.166 20.669 16.317 31.002 24.474 6.369 1.408 12.733 1.93 19.072-0.195-6.666-15.078-13.338-30.157-20.009-45.235z" />
<glyph unicode="&#xe637;" d="M481.014 911.667c-12.273 20.055-21.34 41.313-24.284 64.865 20.475 0.051 40.95 0.102 61.425 0.154-12.027-21.878-24.284-43.617-37.14-65.019z" />
<glyph unicode="&#xe638;" d="M421.524 814.935c7.219 13.921 13.737 28.134 17.567 43.418 1.239 4.941 2.237 9.943 3.343 14.92 5.048-0.128 10.245 0.297 12.867-5.652 0.717-1.628 2.601-3.036 4.393-2.995 5.043 0.113 6.103-3.256 7.404-7.066 4.439-12.984 9.134-25.876 13.716-38.81 0.748-2.099 1.843-4.163-2.145-4.122-19.046 0.189-38.098 0.215-57.144 0.307z" />
<glyph unicode="&#xe639;" d="M487.68 889.738c6.149 1.997 10.245-0.256 14.597-5.038 11.653-12.81 25.457-23.096 40.632-31.519 5.519-3.062 5.463-3.174 1.111-7.649-5.622-5.775-11.208-11.581-16.809-17.377-17.459 13.814-34.949 27.587-52.347 41.477-3.553 2.836-3.359 7.706 0.205 10.516 4.142 3.277 8.402 6.4 12.611 9.59z" />
<glyph unicode="&#xe63a;" d="M930.028 976.599c26.035 0.968 50.166-5.96 73.18-17.608 2.473-1.254 2.893-2.186 0.573-4.168-11.141-9.513-22.205-19.118-33.229-28.769-1.828-1.603-2.903-1.377-4.398 0.461-12.36 15.206-24.74 30.392-37.268 45.45-2.171 2.606 0 3.359 1.208 4.71l-0.067-0.077z" />
<glyph unicode="&#xe63b;" d="M828.017 930.176c8.801 3.953 17.603 7.895 26.394 11.853 7.506 3.379 15.032 6.712 22.482 10.194 2.335 1.085 4.219 1.229 6.595-0.215 19.712-11.945 39.506-23.747 59.274-35.594 1.050-0.63 2.299-1.101 2.78-3.732-39.398 5.366-78.29 10.665-117.181 15.964-0.113 0.517-0.23 1.024-0.343 1.531z" />
<glyph unicode="&#xe63c;" d="M1005.839 910.7c-6.231 0-12.508 0.538-18.668-0.148-6.636-0.742-10.476 2.319-13.972 7.235-1.731 2.417-1.331 3.64 0.712 5.386 11.402 9.774 22.738 19.61 34.012 29.527 1.782 1.562 3.139 1.91 5.222 0.568 10.061-6.446 19.359-13.804 27.909-22.139 1.72-1.679 2.345-3.133 0.681-5.084-0.118-0.138-0.2-0.307-0.292-0.466-8.479-15.319-8.479-15.309-25.713-15.109-3.297 0.041-6.595 0.005-9.887 0.005-0.005 0.077-0.005 0.148-0.005 0.225z" />
<glyph unicode="&#xe63d;" d="M262.912 904.090c-3.579 1.823-4.516 5.658-6.252 8.73-12.047 21.315-25.759 41.467-41.242 60.421-0.788 0.963-1.27 2.176-1.894 3.277 14.013 0.056 28.027 0.108 42.035 0.164 1.475 0.005 2.924-0.041 4.050-1.203 2.924-19.072 5.837-38.144 8.791-57.211 0.655-4.25 1.93-8.53-3.292-11.11-0.988-0.492-1.475-2.017-2.196-3.067z" />
<glyph unicode="&#xe63e;" d="M377.452 975.601c1.382 1.741 3.354 1.116 5.084 1.126 10.752 0.046 21.504-0.005 32.261-0.020 11.622-26.634 23.255-53.268 34.867-79.908 0.855-1.951 1.608-3.948 1.679-6.385-24.632 28.39-49.265 56.786-73.892 85.187z" />
<glyph unicode="&#xe63f;" d="M522.772 975.631c6.692 2.294 13.609 0.968 20.398 0.998 5.289 0.020 10.757 1.393 15.918-1.004-27.889-27.131-55.782-54.257-81.101-78.884 13.681 24.1 29.23 51.492 44.785 78.889z" />
<glyph unicode="&#xe640;" d="M707.773 975.677c1.654 1.679 3.773 1.004 5.693 1.009 20.014 0.041 40.028 0.010 60.052 0 11.049-14.285 22.098-28.564 33.152-42.849-0.189-0.328-0.374-0.655-0.558-0.983-32.783 14.28-65.562 28.554-98.34 42.824z" />
<glyph unicode="&#xe641;" d="M1048.591 905.697c11.372 3.077 16.845-3.395 20.767-12.646 1.71-4.035 3.804-7.91 5.678-11.878 1.004-2.13 0.584-3.195-2.063-3.558-16.696-2.314-33.367-4.823-50.058-7.173-2.821-0.394-5.729 5.509-3.983 8.571 4.71 8.284 9.718 16.399 14.541 24.622 1.121 1.915 2.739 2.13 4.675 2.089 3.471-0.082 6.963-0.026 10.445-0.026z" />
<glyph unicode="&#xe642;" d="M123.105 816.466c3.835-5.806 7.409-11.807 11.592-17.347 3.108-4.127 1.423-5.248-2.56-5.857-6.513-0.988-13.066-1.787-19.528-3.057-35.645-7.009-69.576-18.842-101.509-36.265-2.248-1.229-4.577-2.319-6.881-3.441-1.618-0.788-2.862-0.671-3.092 1.49 31.109 16.532 62.198 33.091 93.327 49.587 9.503 5.038 19.098 9.928 28.652 14.889z" />
<glyph unicode="&#xe643;" d="M668.027 834.76c1.715-0.41 2.857-1.526 3.804-2.949 11.489-17.249 25.8-31.8 42.388-44.155 0.43-0.323 0.742-0.809 1.111-1.219-6.062-10.214-5.996-10.138-14.71-2.391-17.362 15.421-37.437 25.201-60.452 28.841-1.71 0.271-3.579 0.179-5.617 1.797 11.336 6.794 22.405 13.435 33.475 20.076z" />
<glyph unicode="&#xe644;" d="M431.57 669.604c-2.15-0.614-2.237-0.614-2.248 1.894-0.056 10.788-0.061 21.581-0.067 32.374 0 6.4 0.143 12.805 0.005 19.205-0.061 2.811 0.824 3.84 3.738 3.83 19.564-0.102 39.127-0.051 59.479-1.126-9.303-8.499-18.606-16.998-27.909-25.498-8.335-2.58-16.717-1.085-25.062-0.138-3.589 0.41-5.565-0.835-6.108-4.388-1.423-2.022-0.492-4.198-0.456-6.318 0.113-6.661 0.63-13.332-1.372-19.835z" />
<glyph unicode="&#xe645;" d="M518.374 814.935c-9.329-0.092-18.657-0.097-27.981-0.323-2.662-0.061-3.907 0.988-4.746 3.4-5.217 15.022-10.547 30.003-15.79 45.015-0.379 1.091-1.603 2.35-0.2 3.476 1.439 1.147 2.355-0.317 3.261-1.039 16.993-13.609 33.956-27.254 50.929-40.888 2.862-5.878-2.099-7.306-5.473-9.641z" />
<glyph unicode="&#xe646;" d="M293.873 881.024c-1.142-30.249 4.618-59.059 18.309-86.129 5.12-10.127 11.3-19.64 17.7-29.814-7.859 3.364-15.764 6.63-23.547 10.163-1.551 0.701-1.469 2.852-1.751 4.46-5.842 33.188-15.872 65.096-29.276 95.985-2.376 5.478-2.212 5.519 3.645 5.33 4.398-0.143 8.806-0.256 13.061 1.224 0.614-0.41 1.239-0.814 1.859-1.219z" />
<glyph unicode="&#xe647;" d="M832.118 974.418c3.64 4.081 7.89 2.166 12.047 1.239 10.255-6.246 20.506-12.488 31.565-19.226-16.671-7.485-32.415-14.648-48.251-21.591-3.19-1.398-5.75 1.833-4.68 5.791 3.057 11.279 6.205 22.528 9.318 33.787z" />
<glyph unicode="&#xe648;" d="M779.29 976.712c14.403-0.005 28.81 0.031 43.213-0.072 1.905-0.015 4.628 1.198 5.274-2.176-2.949-10.363-6.318-20.634-8.658-31.135-1.091-4.864-4.782-4.326-7.629-5.632-2.673-1.229-3.318 1.684-4.398 3.057-9.339 11.924-18.55 23.956-27.802 35.958z" />
<glyph unicode="&#xe649;" d="M261.857 504.771c-4.49-11.715-11.704-21.924-18.273-32.445-5.519-8.837-11.991-17.075-17.9-25.677-1.27-1.848-3.707-3.226-3.113-6.072-10.486-1.188-20.972-2.376-31.252-3.538-0.993 2.278 0.42 2.939 1.28 3.738 22.477 20.931 44.974 41.841 67.482 62.74 0.527 0.492 1.178 0.845 1.777 1.254z" />
<glyph unicode="&#xe64a;" d="M298.010 966.927c4.895-4.756 8.115-10.772 12.196-16.143 1.454-1.915 0.635-3.804-0.246-5.673-6.016-12.81-10.404-26.168-13.117-40.059-0.625-3.18-1.859-5.56-5.571-5.555-10.025 0.456-14.659 7.388-11.269 16.911 5.99 16.84 12.001 33.679 18.007 50.519z" />
<glyph unicode="&#xe64b;" d="M263.997 974.459c0.23 1.459 1.009 2.207 2.555 2.196 9.462-0.077 18.924-0.108 28.385-0.215 0.435-0.005 0.86-0.573 1.29-0.881-7.168-20.285-14.341-40.576-21.514-60.867-0.44 0.015-0.881 0.026-1.326 0.041-3.123 19.907-6.257 39.818-9.39 59.725z" />
<glyph unicode="&#xe64c;" d="M565.775 976.712c7.977-0.532 16.041 1.311 23.941-0.973-31.887-24.986-63.77-49.976-95.657-74.962-1.418-1.111-2.888-2.166-5.1-2.586 1.341 1.459 2.642 2.954 4.029 4.362 22.922 23.229 45.86 46.449 68.777 69.683 1.403 1.423 2.673 2.98 4.009 4.475z" />
<glyph unicode="&#xe64d;" d="M627.712 725.919c-22.17-0.041-44.334-0.184-66.499-0.061-5.509 0.031-10.194-1.388-15.043-4.076-15.811-8.771-32.86-14.31-50.565-17.864-1.608-0.323-3.174-0.845-4.762-1.27 0 0 0.005 0.005 0.005 0.005-6.072 3.523-3 8.571-2.217 13.24 3.164 3.036 6.395 6.001 9.457 9.139 1.592 1.628 3.415 1.833 5.494 1.828 39.414-0.015 78.828 0.005 118.241-0.005 1.992 0.005 4.055 0.2 5.888-0.937z" />
<glyph unicode="&#xe64e;" d="M765.199 857.713c-5.99 4.521-12.052 8.945-18.842 12.216-4.5 2.171-4.316 4.475-0.85 7.731 3.722 3.492 7.649 6.835 10.568 11.116 6.932 4.915 14.172 9.318 21.652 13.338 2.698 0.246 3.528-1.556 3.789-3.686 0.758-6.359 1.961-12.769-1.060-18.924-4.695-7.532-9.759-14.812-15.258-21.791z" />
<glyph unicode="&#xe64f;" d="M946.268 919.557c-19.932 11.924-39.849 23.844-60.795 36.378 8.397 3.799 15.785 7.137 23.168 10.496 1.546 0.701 2.765 0.492 3.835-0.906 11.51-15.027 23.045-30.044 34.57-45.061-0.256-0.307-0.517-0.604-0.778-0.906z" />
<glyph unicode="&#xe650;" d="M216.806 435.041c-9.329-11.791-19.907-22.482-30.070-33.51-6.303-6.851-13.609-12.769-20.465-19.108 4.337 12.805 7.767 26.030 13.44 38.211 2.381 5.11 9.185 9.4 14.397 11.75 6.625 2.975 15.048 1.951 22.697 2.657z" />
<glyph unicode="&#xe651;" d="M950.902 730.189c31.468-1.357 61.194 5.468 89.303 19.4 14.853 7.363 28.047 17.28 40.663 27.971 1.782-1.859 3.558-3.717 5.34-5.576 0.338-1.096 1.398-1.987 0.983-3.313-0.783-1.751-1.812-3.323-3.988-3.205-3.809 0.2-6.584-1.889-9.375-3.988-27.464-20.7-58.092-33.864-92.329-37.868-8.125-0.947-16.358-2.017-24.602-1.418-5.233 0.379-6.615 2.427-5.996 7.997z" />
<glyph unicode="&#xe652;" d="M983.086 905.902c15.073 0 29.092-0.005 43.11 0.005 3.103 0.005 2.719-1.449 1.546-3.405-3.948-6.574-7.818-13.194-11.812-19.743-1.7-2.78-11.064-3.471-13.179-0.922-6.405 7.716-12.703 15.524-19.666 24.064z" />
<glyph unicode="&#xe653;" d="M964.168 921.58c-0.251-1.7-1.812-3.251-2.77-2.877-3.589 1.398-7.921 0.404-10.803 4.26-10.767 14.392-21.837 28.549-32.686 42.875-0.829 1.096-3.789 2.621-0.758 4.214 1.981 1.039 4.378 3.927 6.779 1.024 13.215-15.964 26.291-32.041 39.398-48.087 0.343-0.42 0.563-0.932 0.84-1.408z" />
<glyph unicode="&#xe654;" d="M718.904 783.002c9.073-3.021 16.686-8.822 25.073-13.158-5.811-4.055-11.658-8.044-17.388-12.196-2.243-1.618-3.359-0.937-4.7 1.167-2.237 3.523-4.511 7.096-7.281 10.194-2.519 2.816-2.939 5.048-0.292 7.905 1.725 1.859 3.072 4.050 4.588 6.088z" />
<glyph unicode="&#xe655;" d="M780.462 879.503c-0.87 7.542-0.241 15.263-2.729 22.61 10.322 6.502 20.639 13 30.961 19.502 0.348-0.328 0.701-0.655 1.055-0.983-9.764-13.706-19.528-27.418-29.286-41.129z" />
<glyph unicode="&#xe656;" d="M430.392 697.283c0.005 7.378-0.015 7.245 7.296 6.077 6.625-1.055 13.276-2.074 20.040-1.812 2.35 0.092 4.756 0.195 6.84-1.275-5.888-6.2-12.227-11.919-18.724-17.469-7.368-0.461-9.631 5.786-13.327 10.148-1.070 1.26-1.152 3.016-2.125 4.332z" />
<glyph unicode="&#xe657;" d="M781.389 872.177c2.432-2.386 2.278-5.719 3.067-8.668 3.405-12.744 8.515-24.827 13.773-37.059-9.231 9.928-18.109 20.152-29.076 28.175 3.651 6.149 7.813 11.94 12.237 17.551z" />
<glyph unicode="&#xe658;" d="M430.392 697.283c5.151-4.828 10.301-9.651 15.457-14.479-4.413-4.777-9.231-9.108-14.275-13.199-2.534 6.354-0.742 12.984-1.208 19.471-0.195 2.719 0 5.468 0.026 8.207z" />
<glyph unicode="&#xe659;" d="M964.782 905.697c8.274 2.002 13.588 0.307 17.981-6.129 4.987-7.306 11.11-13.834 16.742-20.705-0.358-0.353-0.722-0.707-1.080-1.060-10.988 9.103-21.965 18.202-33.644 27.894z" />
<glyph unicode="&#xe65a;" d="M627.661 815.852c-0.932 5.023 2.13 9.083 3.364 13.578 0.195 0.696 1.331 1.644 2.002 1.618 6.902-0.225 13.716 2.237 20.644 0.64-8.499-5.555-17.044-11.039-26.010-15.836z" />
<glyph unicode="&#xe65b;" d="M488.632 715.899c2.304-4.152 0.072-9.068 2.217-13.24-5.862-0.364-11.725-0.722-17.582-1.080 5.12 4.767 10.24 9.544 15.365 14.321z" />
<glyph unicode="&#xe65c;" d="M518.374 814.935c1.823 3.21 3.651 6.426 5.473 9.636 3.712-2.862 7.419-5.724 12.15-9.37-6.676-0.865-12.15-0.64-17.623-0.266z" />
<glyph unicode="&#xe65d;" d="M444.621 877.916c-1.51 5.76-1.244 6.062 5.729 6.441 0.886-0.87 1.792-1.72 2.657-2.611 1.065-1.106 1.567-2.212 0.655-3.804-1.024-1.797-2.412-1.080-3.748-0.896-1.777 0.241-3.533 0.573-5.294 0.87z" />
<glyph unicode="&#xe65e;" d="M971.991 911.201c-2.79 0.241-6.277-2.202-7.603 2.028-0.553 1.761 0.896 3.113 2.125 3.333 3.835 0.681 4.029-3.036 5.478-5.361z" />
<glyph unicode="&#xe65f;" d="M1087.191 565.094c-16.568 2.273-31.734 8.765-46.403 16.302-16.236 8.335-30.484 19.543-43.377 32.44-9.068 9.078-9.052 9.206 0.082 18.196 23.69 23.337 51.789 38.615 84.26 45.814 1.772 0.394 3.625 0.43 5.437 0.635 0-37.801 0-75.597 0-113.388z" />
<glyph unicode="&#xe660;" d="M950.902 730.189c1.654-4.526 5.079-5.678 9.595-5.535 43.387 1.382 82.232 15.084 115.994 42.593 1.905 1.551 3.594 2.401 5.929 1.249 1.597-0.788 3.21-0.589 4.777 0.174-0.005-18.703-0.005-37.402-0.005-56.105-13.578-5.975-27.3-11.448-41.979-14.305-29.481-5.745-58.578-4.654-87.352 4.116-1.92 0.584-3.912 0.937-5.862 1.398-1.172-0.292-1.818 0.379-2.35 1.275-2.78 6.072-2.524 12.682-3.323 19.098-0.246 1.981-0.005 3.994 1.536 5.56 0.282 0.164 0.563 0.328 0.85 0.492 0.732 0 1.459-0.005 2.191-0.010z" />
<glyph unicode="&#xe661;" d="M661.929 130.248c9.139-5.432 17.741-10.522 26.322-15.652 8.31-4.972 16.584-10.010 24.909-14.961 2.176-1.29 3.292-2.258 0.261-3.968-16.998-9.6-33.951-19.292-51.492-29.281 0 21.356 0 42.076 0 63.862z" />
<glyph unicode="&#xe662;" d="M866.074 97.915c0.005-7.148-0.097-14.285 0.046-21.427 0.056-2.862-0.481-4.342-3.855-4.301-14.285 0.148-28.575 0.118-42.86 0.020-2.801-0.020-3.866 0.809-3.845 3.738 0.113 14.469 0.108 28.938 0 43.412-0.020 2.749 1.101 3.364 3.584 3.348 14.469-0.082 28.938-0.118 43.412 0.020 3.098 0.031 3.615-1.29 3.564-3.937-0.128-6.948-0.046-13.916-0.046-20.874z" />
<glyph unicode="&#xe663;" d="M950.907 704.886c0.364-0.369 0.727-0.742 1.096-1.106 1.080-12.436 5.658-23.982 8.76-36.157-3.328 3.482-6.682 6.932-9.979 10.44-25.825 27.392-57.37 44.349-94.239 51.405-7.7 1.475-15.57 2.002-23.357 2.964 0.225 5.668-0.824 11.213-1.807 16.742-0.717 4.029 0.174 6.036 4.664 6.528 7.562 0.835 15.099 2.038 22.431 4.244 0.358-0.020 0.722-0.036 1.075-0.046 6.113-0.118 10.967-3.436 15.739-6.6 3.676-2.437 7.352-4.506 11.776-5.018 1.372-0.973 2.688-2.017 4.142-2.877 4.004-7.66 12.063-10.701 18.36-15.647 10.353-8.131 21.939-14.464 34.258-19.251 3.046-1.172 5.396-2.898 7.081-5.622z" />
<glyph unicode="&#xe664;" d="M645.519 895.898c0.532-2.949-1.055-4.48-3.789-4.803-2.724-0.317-5.919-0.829-6.758 2.847-1.818 8.018-3.359 16.108-4.982 24.172-0.23 1.121-0.010 2.186 1.096 2.862 3.297 2.017 11.715-1.567 12.268-5.473 0.906-6.502 1.459-13.061 2.166-19.604z" />
<glyph unicode="&#xe665;" d="M889.283 743.404c-1.106 0.737-2.212 1.475-3.308 2.212-3.999 2.708-7.798 5.652-11.121 9.175-1.741 1.848-2.888 3.789-0.993 6.216 19.773 3.389 36.024 14.182 51.436 25.897 28.447 21.617 48.092 49.889 59.771 83.676 1.772 5.135 3.369 5.432 7.132 1.546 6.943-7.178 6.717-8.069-0.164-15.59-26.266-28.692-42.004-62.305-46.746-101.012-0.65-5.294-1.126-10.552-0.957-15.877 0.097-3.062 1.167-5.34 4.372-6.149 0-1.096 0-2.196 0.010-3.297l-0.015-0.010c-1.797-2.324-4.219-2.452-6.892-2.191-13.097 1.26-25.917 3.866-38.472 7.726-5.187 1.592-9.58 4.746-14.054 7.68z" />
<glyph unicode="&#xe666;" d="M873.856 761.006c3.19-5.796 8.197-10.168 12.114-15.391-9.523 3.436-18.079 8.668-26.424 14.285 4.736 0.845 9.216 4.972 14.31 1.106z" />
<glyph unicode="&#xe667;" d="M889.283 743.404c17.137-6.292 34.662-10.972 52.9-12.677 2.171-0.205 4.342-0.358 6.513-0.538 0.737-8.433 1.475-16.865 2.212-25.303-23.47 8.156-44.006 21.012-61.624 38.518z" />
<glyph unicode="&#xe91a;" d="M1024 530.744c0 200.926-58.792 363.938-131.482 365.226 0.292 0.006 0.578 0.030 0.872 0.030h-82.942c0 0-194.8-146.336-475.23-203.754-8.56-45.292-14.030-99.274-14.030-161.502s5.466-116.208 14.030-161.5c280.428-57.418 475.23-203.756 475.23-203.756h82.942c-0.292 0-0.578 0.024-0.872 0.032 72.696 1.288 131.482 164.298 131.482 365.224zM864.824 220.748c-9.382 0-19.532 9.742-24.746 15.548-12.63 14.064-24.792 35.96-35.188 63.328-23.256 61.232-36.066 143.31-36.066 231.124 0 87.81 12.81 169.89 36.066 231.122 10.394 27.368 22.562 49.266 35.188 63.328 5.214 5.812 15.364 15.552 24.746 15.552 9.38 0 19.536-9.744 24.744-15.552 12.634-14.064 24.796-35.958 35.188-63.328 23.258-61.23 36.068-143.312 36.068-231.122 0-87.804-12.81-169.888-36.068-231.124-10.39-27.368-22.562-49.264-35.188-63.328-5.208-5.806-15.36-15.548-24.744-15.548zM251.812 530.744c0 51.95 3.81 102.43 11.052 149.094-47.372-6.554-88.942-10.324-140.34-10.324-67.058 0-67.058 0-67.058 0l-55.466-94.686v-88.17l55.46-94.686c0 0 0 0 67.060 0 51.398 0 92.968-3.774 140.34-10.324-7.236 46.664-11.048 97.146-11.048 149.096zM368.15 317.828l-127.998 24.51 81.842-321.544c4.236-16.634 20.744-25.038 36.686-18.654l118.556 47.452c15.944 6.376 22.328 23.964 14.196 39.084l-123.282 229.152zM864.824 411.27c-3.618 0-7.528 3.754-9.538 5.992-4.87 5.42-9.556 13.86-13.562 24.408-8.962 23.6-13.9 55.234-13.9 89.078s4.938 65.478 13.9 89.078c4.006 10.548 8.696 18.988 13.562 24.408 2.010 2.24 5.92 5.994 9.538 5.994 3.616 0 7.53-3.756 9.538-5.994 4.87-5.42 9.556-13.858 13.56-24.408 8.964-23.598 13.902-55.234 13.902-89.078 0-33.842-4.938-65.478-13.902-89.078-4.004-10.548-8.696-18.988-13.56-24.408-2.008-2.238-5.92-5.992-9.538-5.992z" />
<glyph unicode="&#xe9d2;" d="M192 960v-1024l320 320 320-320v1024z" />
<glyph unicode="&#xea91;" d="M1024 765.582c-37.676-16.708-78.164-28.002-120.66-33.080 43.372 26 76.686 67.17 92.372 116.23-40.596-24.078-85.556-41.56-133.41-50.98-38.32 40.83-92.922 66.34-153.346 66.34-116.022 0-210.088-94.058-210.088-210.078 0-16.466 1.858-32.5 5.44-47.878-174.6 8.764-329.402 92.4-433.018 219.506-18.084-31.028-28.446-67.116-28.446-105.618 0-72.888 37.088-137.192 93.46-174.866-34.438 1.092-66.832 10.542-95.154 26.278-0.020-0.876-0.020-1.756-0.020-2.642 0-101.788 72.418-186.696 168.522-206-17.626-4.8-36.188-7.372-55.348-7.372-13.538 0-26.698 1.32-39.528 3.772 26.736-83.46 104.32-144.206 196.252-145.896-71.9-56.35-162.486-89.934-260.916-89.934-16.958 0-33.68 0.994-50.116 2.94 92.972-59.61 203.402-94.394 322.042-94.394 386.422 0 597.736 320.124 597.736 597.744 0 9.108-0.206 18.168-0.61 27.18 41.056 29.62 76.672 66.62 104.836 108.748z" />
<glyph unicode="&#xeab1;" d="M512.008 947.358c-282.738 0-512.008-229.218-512.008-511.998 0-226.214 146.704-418.132 350.136-485.836 25.586-4.738 34.992 11.11 34.992 24.632 0 12.204-0.48 52.542-0.696 95.324-142.448-30.976-172.504 60.41-172.504 60.41-23.282 59.176-56.848 74.916-56.848 74.916-46.452 31.778 3.51 31.124 3.51 31.124 51.4-3.61 78.476-52.766 78.476-52.766 45.672-78.27 119.776-55.64 149.004-42.558 4.588 33.086 17.852 55.68 32.506 68.464-113.73 12.942-233.276 56.85-233.276 253.032 0 55.898 20.004 101.574 52.76 137.428-5.316 12.9-22.854 64.972 4.952 135.5 0 0 43.006 13.752 140.84-52.49 40.836 11.348 84.636 17.036 128.154 17.234 43.502-0.198 87.336-5.886 128.256-17.234 97.734 66.244 140.656 52.49 140.656 52.49 27.872-70.528 10.35-122.6 5.036-135.5 32.82-35.856 52.694-81.532 52.694-137.428 0-196.654-119.778-239.95-233.79-252.624 18.364-15.89 34.724-47.046 34.724-94.812 0-68.508-0.596-123.644-0.596-140.508 0-13.628 9.222-29.594 35.172-24.566 203.322 67.776 349.842 259.626 349.842 485.768 0 282.78-229.234 511.998-511.992 511.998z" />
<glyph unicode="&#xeac1;" d="M896 576c-35.2 0-64-28.8-64-64v-256c0-35.2 28.8-64 64-64s64 28.8 64 64v256c0 35.2-28.8 64-64 64zM128 576c-35.2 0-64-28.8-64-64v-256c0-35.2 28.8-64 64-64s64 28.8 64 64v256c0 35.2-28.802 64-64 64zM224 224c0-53.020 42.98-96 96-96v0-128c0-35.2 28.8-64 64-64s64 28.8 64 64v128h128v-128c0-35.2 28.8-64 64-64s64 28.8 64 64v128c53.020 0 96 42.98 96 96v352h-576v-352zM798.216 639.998c-9.716 87.884-59.004 163.792-129.62 209.646l32.024 64.046c7.904 15.806 1.496 35.028-14.31 42.932s-35.030 1.496-42.932-14.312l-32.142-64.286-8.35 3.316c-28.568 9.502-59.122 14.66-90.886 14.66-31.762 0-62.316-5.158-90.888-14.656l-8.348-3.316-32.142 64.282c-7.904 15.808-27.128 22.212-42.932 14.312-15.808-7.904-22.214-27.126-14.312-42.932l32.022-64.046c-70.616-45.852-119.904-121.762-129.622-209.644v-32h574.222v31.998h-1.784zM416 704c-17.674 0-32 14.328-32 32 0 17.648 14.288 31.958 31.93 31.996 0.032 0 0.062-0.002 0.094-0.002 0.018 0 0.036 0.002 0.052 0.002 17.638-0.042 31.924-14.35 31.924-31.996 0-17.672-14.326-32-32-32zM608 704c-17.674 0-32 14.328-32 32 0 17.646 14.286 31.954 31.924 31.996 0.016 0 0.034-0.002 0.050-0.002 0.032 0 0.064 0.002 0.096 0.002 17.64-0.038 31.93-14.348 31.93-31.996 0-17.672-14.326-32-32-32z" />
</font>
</defs>
</svg>
