<?xml version="1.0" encoding="utf-8"?>
<!-- Generator: Adobe Illustrator 17.0.1, SVG Export Plug-In . SVG Version: 6.00 Build 0)  -->
<!DOCTYPE svg PUBLIC "-//W3C//DTD SVG 1.1//EN" "http://www.w3.org/Graphics/SVG/1.1/DTD/svg11.dtd">
<svg version="1.1" id="Layer_1" xmlns="http://www.w3.org/2000/svg" xmlns:xlink="http://www.w3.org/1999/xlink" x="0px" y="0px"
	 width="24px" height="24px" viewBox="0 0 24 24" enable-background="new 0 0 24 24" xml:space="preserve">
<path id="menu" fill="#FFFFFF" d="M7.25,14.771h9.5c0.438,0,0.792,0.354,0.792,0.792v0.792c0,0.438-0.354,0.792-0.792,0.792h-9.5
	c-0.438,0-0.792-0.354-0.792-0.792v-0.792C6.458,15.125,6.812,14.771,7.25,14.771z M6.458,11.604v0.792
	c0,0.438,0.354,0.792,0.792,0.792h9.5c0.438,0,0.792-0.354,0.792-0.792v-0.792c0-0.438-0.354-0.792-0.792-0.792h-9.5
	C6.812,10.812,6.458,11.166,6.458,11.604z M6.458,7.646v0.792c0,0.438,0.354,0.792,0.792,0.792h9.5c0.438,0,0.792-0.354,0.792-0.792
	V7.646c0-0.438-0.354-0.792-0.792-0.792h-9.5C6.812,6.854,6.458,7.208,6.458,7.646z"/>
<g id="Guides" display="none">
</g>
<path fill="none" stroke="#FFFFFF" stroke-width="1.889" stroke-miterlimit="10" d="M21.562,17.185c0,2.463-2.239,4.461-5,4.461
	H7.438c-2.761,0-5-1.997-5-4.461V6.815c0-2.463,2.239-4.461,5-4.461h9.125c2.761,0,5,1.997,5,4.461V17.185z"/>
</svg>
