<?xml version="1.0" encoding="UTF-8" standalone="no"?>
<!-- Generator: Adobe Illustrator 19.0.0, SVG Export Plug-In . SVG Version: 6.00 Build 0)  -->

<svg
   xmlns:dc="http://purl.org/dc/elements/1.1/"
   xmlns:cc="http://creativecommons.org/ns#"
   xmlns:rdf="http://www.w3.org/1999/02/22-rdf-syntax-ns#"
   xmlns:svg="http://www.w3.org/2000/svg"
   xmlns="http://www.w3.org/2000/svg"
   xmlns:sodipodi="http://sodipodi.sourceforge.net/DTD/sodipodi-0.dtd"
   xmlns:inkscape="http://www.inkscape.org/namespaces/inkscape"
   version="1.1"
   id="Capa_1"
   x="0px"
   y="0px"
   viewBox="0 0 511.998 511.998"
   style="enable-background:new 0 0 511.998 511.998;"
   xml:space="preserve"
   sodipodi:docname="magic-wand.svg"
   inkscape:version="0.92.2 (5c3e80d, 2017-08-06)"><metadata
     id="metadata127"><rdf:RDF><cc:Work
         rdf:about=""><dc:format>image/svg+xml</dc:format><dc:type
           rdf:resource="http://purl.org/dc/dcmitype/StillImage" /><dc:title></dc:title></cc:Work></rdf:RDF></metadata><defs
     id="defs125" /><sodipodi:namedview
     pagecolor="#ffffff"
     bordercolor="#666666"
     borderopacity="1"
     objecttolerance="10"
     gridtolerance="10"
     guidetolerance="10"
     inkscape:pageopacity="0"
     inkscape:pageshadow="2"
     inkscape:window-width="1680"
     inkscape:window-height="987"
     id="namedview123"
     showgrid="false"
     inkscape:zoom="0.46093931"
     inkscape:cx="255.99899"
     inkscape:cy="255.99899"
     inkscape:window-x="-8"
     inkscape:window-y="-8"
     inkscape:window-maximized="1"
     inkscape:current-layer="Capa_1" /><g
     id="g6"
     style="fill:#ea2845;fill-opacity:1"><g
       id="g4"
       style="fill:#ea2845;fill-opacity:1"><path
         d="M501.998,170c-5.52,0-10,4.48-10,10s4.48,10,10,10c5.52,0,10-4.48,10-10S507.518,170,501.998,170z"
         id="path2"
         style="fill:#ea2845;fill-opacity:1" /></g></g><g
     id="g12"
     style="fill:#ea2845;fill-opacity:1"><g
       id="g10"
       style="fill:#ea2845;fill-opacity:1"><path
         d="M459.278,52.72c-3.91-3.9-10.24-3.9-14.14,0c-3.91,3.91-3.91,10.24,0,14.14c3.9,3.91,10.23,3.91,14.14,0    C463.178,62.96,463.178,56.63,459.278,52.72z"
         id="path8"
         style="fill:#ea2845;fill-opacity:1" /></g></g><g
     id="g18"
     style="fill:#ea2845;fill-opacity:1"><g
       id="g16"
       style="fill:#ea2845;fill-opacity:1"><path
         d="M459.278,293.14c-3.91-3.91-10.24-3.91-14.14,0c-3.91,3.9-3.91,10.23,0,14.14c3.9,3.9,10.23,3.9,14.14,0    C463.178,303.37,463.178,297.04,459.278,293.14z"
         id="path14"
         style="fill:#ea2845;fill-opacity:1" /></g></g><g
     id="g24"
     style="fill:#ea2845;fill-opacity:1"><g
       id="g22"
       style="fill:#ea2845;fill-opacity:1"><path
         d="M331.998,0c-5.52,0-10,4.48-10,10s4.48,10,10,10c5.52,0,10-4.48,10-10S337.518,0,331.998,0z"
         id="path20"
         style="fill:#ea2845;fill-opacity:1" /></g></g><g
     id="g30"><g
       id="g28"><path
         d="M331.998,340c-5.52,0-10,4.48-10,10c0,5.52,4.48,10,10,10c5.52,0,10-4.48,10-10C341.998,344.48,337.518,340,331.998,340z"
         id="path26"
         style="fill:#ea2845;fill-opacity:1" /></g></g><g
     id="g36"
     style="fill:#ea2845;fill-opacity:1"><g
       id="g34"
       style="fill:#ea2845;fill-opacity:1"><path
         d="M218.858,52.72c-3.9-3.9-10.23-3.9-14.14,0c-3.9,3.91-3.9,10.24,0,14.14c3.91,3.91,10.24,3.91,14.14,0    C222.768,62.96,222.768,56.63,218.858,52.72z"
         id="path32"
         style="fill:#ea2845;fill-opacity:1" /></g></g><g
     id="g42"
     style="fill:#ea2845;fill-opacity:1"><g
       id="g40"
       style="fill:#ea2845;fill-opacity:1"><path
         d="M161.998,170c-5.52,0-10,4.48-10,10s4.48,10,10,10c5.52,0,10-4.48,10-10S167.518,170,161.998,170z"
         id="path38"
         style="fill:#ea2845;fill-opacity:1" /></g></g><g
     id="g48"><g
       id="g46"><path
         d="M376.959,147.969l-14.14-14.14c-5.666-5.666-13.2-8.787-21.216-8.787c-8.017,0-15.551,3.121-21.23,8.8l-94.783,95.155    c-0.632,0.396-1.233,0.86-1.782,1.411c-0.552,0.554-1.018,1.16-1.413,1.797L8.788,446.649C3.121,452.314,0,459.848,0,467.86    c0,8.012,3.121,15.545,8.787,21.211l14.14,14.139c5.666,5.667,13.198,8.788,21.211,8.788s15.546-3.121,21.226-8.801    l215.229-216.05l96.366-96.746c5.666-5.666,8.787-13.201,8.787-21.216C385.746,161.17,382.625,153.635,376.959,147.969z     M51.207,489.068c-1.889,1.889-4.399,2.93-7.069,2.93s-5.18-1.041-7.068-2.93l-14.14-14.14C21.041,473.04,20,470.53,20,467.86    c0-2.67,1.041-5.18,2.943-7.083L231.09,251.814l28.288,28.288L51.207,489.068z M362.803,176.273l-89.308,89.661l-28.289-28.288    l89.324-89.674c1.889-1.888,4.4-2.928,7.074-2.928c2.673,0,5.185,1.04,7.073,2.928l14.14,14.141    c1.889,1.889,2.93,4.401,2.93,7.074C365.747,171.86,364.705,174.37,362.803,176.273z"
         id="path44" /></g></g><g
     id="g54"
     style="fill:#ea2845;fill-opacity:1"><g
       id="g52"
       style="fill:#ea2845;fill-opacity:1"><path
         d="M331.998,40c-5.522,0-10,4.477-10,10v40c0,5.523,4.478,10,10,10c5.522,0,10-4.477,10-10V50    C341.998,44.477,337.52,40,331.998,40z"
         id="path50"
         style="fill:#ea2845;fill-opacity:1" /></g></g><g
     id="g60"
     style="fill:#ea2845;fill-opacity:1"><g
       id="g58"
       style="fill:#ea2845;fill-opacity:1"><path
         d="M331.998,260c-5.522,0-10,4.477-10,10v40c0,5.523,4.478,10,10,10c5.522,0,10-4.477,10-10v-40    C341.998,264.477,337.521,260,331.998,260z"
         id="path56"
         style="fill:#ea2845;fill-opacity:1" /></g></g><g
     id="g66"
     style="fill:#ea2845;fill-opacity:1"><g
       id="g64"
       style="fill:#ea2845;fill-opacity:1"><path
         d="M275.429,109.289l-28.28-28.28c-3.906-3.905-10.236-3.905-14.143,0c-3.905,3.905-3.905,10.237,0,14.142l28.281,28.28    c1.953,1.953,4.512,2.929,7.071,2.929s5.118-0.977,7.071-2.929C279.334,119.526,279.334,113.194,275.429,109.289z"
         id="path62"
         style="fill:#ea2845;fill-opacity:1" /></g></g><g
     id="g72"
     style="fill:#ea2845;fill-opacity:1"><g
       id="g70"
       style="fill:#ea2845;fill-opacity:1"><path
         d="M430.988,264.849l-28.279-28.28c-3.906-3.905-10.236-3.905-14.143,0c-3.905,3.905-3.905,10.237,0,14.142l28.28,28.28    c1.953,1.953,4.512,2.929,7.071,2.929s5.118-0.977,7.071-2.929C434.893,275.086,434.893,268.754,430.988,264.849z"
         id="path68"
         style="fill:#ea2845;fill-opacity:1" /></g></g><g
     id="g78"
     style="fill:#ea2845;fill-opacity:1"><g
       id="g76"
       style="fill:#ea2845;fill-opacity:1"><path
         d="M430.989,81.009c-3.905-3.905-10.235-3.905-14.143,0l-28.28,28.28c-3.905,3.905-3.905,10.237,0,14.142    c1.954,1.953,4.512,2.929,7.072,2.929c2.559,0,5.118-0.977,7.071-2.929l28.28-28.28C434.894,91.246,434.894,84.914,430.989,81.009    z"
         id="path74"
         style="fill:#ea2845;fill-opacity:1" /></g></g><g
     id="g84"
     style="fill:#ea2845;fill-opacity:1"><g
       id="g82"
       style="fill:#ea2845;fill-opacity:1"><path
         d="M241.998,170h-40c-5.522,0-10,4.477-10,10s4.478,10,10,10h40c5.522,0,10-4.477,10-10S247.52,170,241.998,170z"
         id="path80"
         style="fill:#ea2845;fill-opacity:1" /></g></g><g
     id="g90"
     style="fill:#ea2845;fill-opacity:1"><g
       id="g88"
       style="fill:#ea2845;fill-opacity:1"><path
         d="M461.998,170h-40c-5.522,0-10,4.477-10,10s4.478,10,10,10h40c5.522,0,10-4.477,10-10S467.521,170,461.998,170z"
         id="path86"
         style="fill:#ea2845;fill-opacity:1" /></g></g><g
     id="g92" /><g
     id="g94" /><g
     id="g96" /><g
     id="g98" /><g
     id="g100" /><g
     id="g102" /><g
     id="g104" /><g
     id="g106" /><g
     id="g108" /><g
     id="g110" /><g
     id="g112" /><g
     id="g114" /><g
     id="g116" /><g
     id="g118" /><g
     id="g120" /></svg>