<?xml version="1.0" encoding="UTF-8" standalone="no"?>
<!-- Created with Inkscape (http://www.inkscape.org/) -->

<svg
   xmlns:dc="http://purl.org/dc/elements/1.1/"
   xmlns:cc="http://creativecommons.org/ns#"
   xmlns:rdf="http://www.w3.org/1999/02/22-rdf-syntax-ns#"
   xmlns:svg="http://www.w3.org/2000/svg"
   xmlns="http://www.w3.org/2000/svg"
   xmlns:sodipodi="http://sodipodi.sourceforge.net/DTD/sodipodi-0.dtd"
   xmlns:inkscape="http://www.inkscape.org/namespaces/inkscape"
   width="150"
   height="50"
   viewBox="0 0 39.687499 13.229167"
   version="1.1"
   id="svg1133"
   inkscape:version="0.92.3 (2405546, 2018-03-11)"
   sodipodi:docname="TRILON BLACK TEXT.svg"
   inkscape:export-filename="C:\Users\jstar\OneDrive\Desktop\LOGO NAJNOWSZE11.png"
   inkscape:export-xdpi="96"
   inkscape:export-ydpi="96">
  <defs
     id="defs1127" />
  <sodipodi:namedview
     id="base"
     pagecolor="#080c1d"
     bordercolor="#666666"
     borderopacity="1.0"
     inkscape:pageopacity="0"
     inkscape:pageshadow="2"
     inkscape:zoom="4"
     inkscape:cx="62.076305"
     inkscape:cy="88.333039"
     inkscape:document-units="mm"
     inkscape:current-layer="layer1"
     showgrid="false"
     units="px"
     inkscape:pagecheckerboard="true"
     inkscape:window-width="1680"
     inkscape:window-height="987"
     inkscape:window-x="-8"
     inkscape:window-y="-8"
     inkscape:window-maximized="1"
     showguides="true"
     inkscape:guide-bbox="true"
     objecttolerance="1"
     guidetolerance="1"
     gridtolerance="1"
     showborder="true" />
  <metadata
     id="metadata1130">
    <rdf:RDF>
      <cc:Work
         rdf:about="">
        <dc:format>image/svg+xml</dc:format>
        <dc:type
           rdf:resource="http://purl.org/dc/dcmitype/StillImage" />
        <dc:title></dc:title>
      </cc:Work>
    </rdf:RDF>
  </metadata>
  <g
     inkscape:label="Layer 1"
     inkscape:groupmode="layer"
     id="layer1"
     transform="translate(0,-283.77082)">
    <path
       inkscape:connector-curvature="0"
       id="path1053"
       style="font-style:normal;font-weight:normal;font-size:medium;line-height:1.25;font-family:sans-serif;letter-spacing:0px;word-spacing:0px;fill:#e61284;fill-opacity:1;stroke:none;stroke-width:0.10061551"
       d="m 37.315145,290.96473 v 0.9101 h -0.944438 v -0.9101 z" />
    <path
       style="fill:#7b124c;fill-opacity:1;stroke:none;stroke-width:0.02157801;stroke-linecap:butt;stroke-linejoin:miter;stroke-miterlimit:4;stroke-dasharray:none;stroke-opacity:1"
       d="m 6.7776366,290.2672 1.8932244,-1.06494 v -2.12989 l -1.8932244,1.06494 z"
       id="path1774"
       inkscape:connector-curvature="0" />
    <path
       style="fill:#b31ce7;fill-opacity:1;stroke:none;stroke-width:0.02157803px;stroke-linecap:butt;stroke-linejoin:miter;stroke-opacity:1"
       d="m 4.0675155,293.99272 -1.8932241,-1.06494 v -2.1299 l 1.8932241,1.06495 z"
       id="path1055"
       inkscape:connector-curvature="0" />
    <path
       inkscape:connector-curvature="0"
       id="path1057"
       d="m 4.064231,291.45881 -1.8931791,-1.06495 v -2.12988 l 1.8931791,1.06494 z"
       style="fill:#b31ce7;fill-opacity:1;stroke:none;stroke-width:0.02157803px;stroke-linecap:butt;stroke-linejoin:miter;stroke-opacity:1" />
    <path
       style="fill:#e61284;fill-opacity:1;stroke:none;stroke-width:0.02157803px;stroke-linecap:butt;stroke-linejoin:miter;stroke-opacity:1"
       d="m 4.064231,288.9473 -1.8931791,-1.06495 v -2.12989 l 1.8931791,1.06495 z"
       id="path1059"
       inkscape:connector-curvature="0" />
    <path
       inkscape:connector-curvature="0"
       id="path1065"
       d="m 6.3878508,295.30002 -1.8932242,-1.06495 v -2.12989 l 1.8932242,1.06494 z"
       style="fill:#e61284;fill-opacity:1;stroke:none;stroke-width:0.02157803px;stroke-linecap:butt;stroke-linejoin:miter;stroke-opacity:1" />
    <path
       sodipodi:nodetypes="cccc"
       inkscape:connector-curvature="0"
       id="path1069"
       d="m 10.802824,285.47081 -1.8931795,1.06495 -1.8931791,-1.06495 z"
       style="opacity:1;fill:#58168b;fill-opacity:1;stroke:none;stroke-width:0.02157803px;stroke-linecap:butt;stroke-linejoin:miter;stroke-opacity:1" />
    <path
       style="fill:#e61284;fill-opacity:1;stroke:none;stroke-width:0.02157803px;stroke-linecap:butt;stroke-linejoin:miter;stroke-opacity:1"
       d="m 6.3878508,292.7718 -1.8932242,-1.06494 v -2.1299 l 1.8932242,1.06495 z"
       id="path1073"
       inkscape:connector-curvature="0" />
    <path
       inkscape:connector-curvature="0"
       id="path1077"
       d="m 6.3878508,290.24358 -1.8932242,-1.06494 v -2.1299 l 1.8932242,1.06495 z"
       style="fill:#e61284;fill-opacity:1;stroke:none;stroke-width:0.02157801;stroke-linecap:butt;stroke-linejoin:miter;stroke-miterlimit:4;stroke-dasharray:none;stroke-opacity:1" />
    <path
       inkscape:connector-curvature="0"
       id="path1081"
       d="m 8.4780121,286.70195 -1.8931788,-1.06494 -1.8932243,1.06494 1.8932243,1.06494 z"
       style="opacity:1;fill:#5b1096;fill-opacity:1;stroke:none;stroke-width:0.02157801;stroke-linecap:butt;stroke-linejoin:miter;stroke-miterlimit:4;stroke-dasharray:none;stroke-opacity:1" />
    <path
       style="opacity:1;fill:#5b1096;fill-opacity:1;stroke:none;stroke-width:0.02157803px;stroke-linecap:butt;stroke-linejoin:miter;stroke-opacity:1"
       d="m 2.446176,285.47081 1.8931791,1.06495 1.8932241,-1.06495 z"
       id="path1083"
       inkscape:connector-curvature="0"
       sodipodi:nodetypes="cccc" />
    <path
       inkscape:connector-curvature="0"
       id="path1764"
       d="m 9.0979721,294.01634 1.8932239,-1.06494 v -2.12989 l -1.8932239,1.06494 z"
       style="fill:#5b1096;fill-opacity:1;stroke:none;stroke-width:0.02157803px;stroke-linecap:butt;stroke-linejoin:miter;stroke-opacity:1" />
    <path
       style="fill:#5b1096;fill-opacity:1;stroke:none;stroke-width:0.02157803px;stroke-linecap:butt;stroke-linejoin:miter;stroke-opacity:1"
       d="m 9.1012564,291.48244 1.8931796,-1.06496 v -2.12988 l -1.8931796,1.06495 z"
       id="path1766"
       inkscape:connector-curvature="0" />
    <path
       inkscape:connector-curvature="0"
       id="path1768"
       d="m 9.1012564,288.97092 1.8931796,-1.06495 v -2.12989 l -1.8931796,1.06495 z"
       style="fill:#7b124c;fill-opacity:1;stroke:none;stroke-width:0.02157803px;stroke-linecap:butt;stroke-linejoin:miter;stroke-opacity:1" />
    <path
       style="fill:#7b124c;fill-opacity:1;stroke:none;stroke-width:0.02157803px;stroke-linecap:butt;stroke-linejoin:miter;stroke-opacity:1"
       d="m 6.7776366,295.32364 1.8932244,-1.06495 v -2.12989 l -1.8932244,1.06495 z"
       id="path1770"
       inkscape:connector-curvature="0" />
    <path
       inkscape:connector-curvature="0"
       id="path1772"
       d="m 6.7776366,292.79542 1.8932244,-1.06494 v -2.12989 l -1.8932244,1.06494 z"
       style="fill:#7b124c;fill-opacity:1;stroke:none;stroke-width:0.02157803px;stroke-linecap:butt;stroke-linejoin:miter;stroke-opacity:1" />
    <path
       d="m 18.460246,287.97465 v 0.97096 h -1.037144 v 2.9349 h -1.224718 v -2.9349 h -1.026116 v -0.97096 z"
       style="font-style:normal;font-variant:normal;font-weight:900;font-stretch:normal;font-size:42.66666794px;line-height:1.25;font-family:poppins;-inkscape-font-specification:'poppins Heavy';letter-spacing:0px;word-spacing:0px;fill:#080c1d;fill-opacity:1;stroke:none;stroke-width:0.12929881"
       id="path862"
       inkscape:connector-curvature="0" />
    <path
       d="m 20.750995,291.88051 -0.739253,-1.40125 v 1.40125 h -1.224719 v -3.90586 h 1.820528 q 0.474449,0 0.810962,0.17103 0.336526,0.1655 0.502028,0.45788 0.171024,0.28688 0.171024,0.65098 0,0.39169 -0.220675,0.69511 -0.215153,0.30343 -0.623388,0.43583 l 0.849571,1.49503 z m -0.739253,-2.21773 h 0.485478 q 0.176531,0 0.264804,-0.0772 0.08827,-0.0828 0.08827,-0.25378 0,-0.15446 -0.09379,-0.24273 -0.08826,-0.0883 -0.259283,-0.0883 h -0.485478 z"
       style="font-style:normal;font-variant:normal;font-weight:900;font-stretch:normal;font-size:42.66666794px;line-height:1.25;font-family:poppins;-inkscape-font-specification:'poppins Heavy';letter-spacing:0px;word-spacing:0px;fill:#080c1d;fill-opacity:1;stroke:none;stroke-width:0.12929881"
       id="path864"
       inkscape:connector-curvature="0" />
    <path
       d="m 23.707541,287.97465 v 3.90586 h -1.224718 v -3.90586 z"
       style="font-style:normal;font-variant:normal;font-weight:900;font-stretch:normal;font-size:42.66666794px;line-height:1.25;font-family:poppins;-inkscape-font-specification:'poppins Heavy';letter-spacing:0px;word-spacing:0px;fill:#080c1d;fill-opacity:1;stroke:none;stroke-width:0.12929881"
       id="path866"
       inkscape:connector-curvature="0" />
    <path
       d="m 25.4854,290.9537 h 1.180576 v 0.92681 h -2.405294 v -3.90586 H 25.4854 Z"
       style="font-style:normal;font-variant:normal;font-weight:900;font-stretch:normal;font-size:42.66666794px;line-height:1.25;font-family:poppins;-inkscape-font-specification:'poppins Heavy';letter-spacing:0px;word-spacing:0px;fill:#080c1d;fill-opacity:1;stroke:none;stroke-width:0.12929881"
       id="path868"
       inkscape:connector-curvature="0" />
    <path
       d="m 28.954655,287.90845 q 0.551679,0 1.009565,0.2593 0.457886,0.25376 0.72269,0.71166 0.270325,0.45788 0.270325,1.03162 0,0.57375 -0.270325,1.03164 -0.264804,0.45788 -0.728211,0.71718 -0.457886,0.25928 -1.004044,0.25928 -0.551679,0 -1.015086,-0.25928 -0.457886,-0.2593 -0.728211,-0.71718 -0.270312,-0.45789 -0.270312,-1.03164 0,-0.57374 0.270312,-1.03162 0.270325,-0.4579 0.728211,-0.71166 0.463407,-0.2593 1.015086,-0.2593 z m 0,1.13094 q -0.369627,0 -0.568229,0.23722 -0.198603,0.23171 -0.198603,0.63442 0,0.39721 0.198603,0.63443 0.198602,0.23171 0.568229,0.23171 0.364105,0 0.562708,-0.23171 0.198603,-0.23722 0.198603,-0.63443 0,-0.40271 -0.198603,-0.63442 -0.198603,-0.23722 -0.562708,-0.23722 z"
       style="font-style:normal;font-variant:normal;font-weight:900;font-stretch:normal;font-size:42.66666794px;line-height:1.25;font-family:poppins;-inkscape-font-specification:'poppins Heavy';letter-spacing:0px;word-spacing:0px;fill:#080c1d;fill-opacity:1;stroke:none;stroke-width:0.12929881"
       id="path870"
       inkscape:connector-curvature="0" />
    <path
       d="m 35.139534,291.88051 h -1.224718 l -1.29644,-1.96396 v 1.96396 h -1.224719 v -3.90586 h 1.224719 l 1.29644,1.99707 v -1.99707 h 1.224718 z"
       style="font-style:normal;font-variant:normal;font-weight:900;font-stretch:normal;font-size:42.66666794px;line-height:1.25;font-family:poppins;-inkscape-font-specification:'poppins Heavy';letter-spacing:0px;word-spacing:0px;fill:#080c1d;fill-opacity:1;stroke:none;stroke-width:0.12929881"
       id="path872"
       inkscape:connector-curvature="0" />
  </g>
</svg>
