<?xml version="1.0" encoding="utf-8"?>
<!-- Generator: Adobe Illustrator 16.0.0, SVG Export Plug-In . SVG Version: 6.00 Build 0)  -->
<!DOCTYPE svg PUBLIC "-//W3C//DTD SVG 1.1//EN" "http://www.w3.org/Graphics/SVG/1.1/DTD/svg11.dtd">
<svg version="1.1" id="Layer_1" xmlns="http://www.w3.org/2000/svg" xmlns:xlink="http://www.w3.org/1999/xlink" x="0px" y="0px"
	 width="200px" height="200px" viewBox="0 0 200 200" enable-background="new 0 0 200 200" xml:space="preserve">
<path d="M146.645,178.518c-38.039,0-76.077,0-114.116,0c0.023-1.363,0.068-2.727,0.068-4.091
	c0.003-44.389-0.024-88.779,0.087-133.169c0.005-2.122,0.836-4.488,1.968-6.315c3.747-6.048,7.808-11.9,11.748-17.827
	c40.35,0,80.701,0,121.051,0c-0.019,1.363-0.054,2.726-0.055,4.089c-0.002,46.048-0.02,92.095,0.05,138.142
	c0.003,2.235-0.665,3.605-2.446,4.94C158.805,168.928,152.752,173.759,146.645,178.518z M155.996,28.765
	c-0.751-0.156-0.956-0.237-1.161-0.237c-33.407-0.014-66.813-0.025-100.22-0.013c-0.693,0.001-1.708,0.038-2.026,0.465
	c-2.013,2.698-3.872,5.511-6.231,8.939c33.825,0,66.646,0,99.822,0c0,42.123,0,83.941,0,126.271
	c2.721-2.056,4.894-3.866,7.239-5.416c1.944-1.286,2.643-2.789,2.638-5.182c-0.085-40.446-0.061-80.891-0.061-121.336
	C155.996,31.127,155.996,29.999,155.996,28.765z M104.901,128.33c8.812,5.684,18.589,1.363,22.285-5.629
	c3.596-6.803,3.802-13.871,0.617-20.873c-2.787-6.125-8.525-9.254-15.101-8.305c-2.213,0.32-4.335,1.273-6.943,2.073
	c0-5.542,0-11.008,0-16.446c-4.5,0-8.539,0-12.666,0c0,17.033,0,33.863,0,51.073C97.111,129.371,101.346,131.826,104.901,128.33z
	 M44.926,130.158c3.675,0,6.926-0.184,10.145,0.056c2.7,0.2,3.809-0.752,4.488-3.388c2.247-8.708,2.361-8.678,11.149-8.394
	c0.105,0.004,0.243-0.042,0.311,0.009c0.868,0.657,2.151,1.155,2.507,2.028c1.023,2.513,1.569,5.217,2.524,7.762
	c0.292,0.777,1.278,1.8,1.984,1.831c4.047,0.175,8.106,0.084,12.5,0.084c-4.961-16.053-9.767-31.658-14.668-47.236
	c-0.2-0.636-1.288-1.39-1.981-1.409c-4.606-0.125-9.218-0.064-14.062-0.064C54.879,97.607,49.965,113.678,44.926,130.158z"/>
<path fill-rule="evenodd" clip-rule="evenodd" fill="#FFFFFF" d="M46.399,17.115c-3.94,5.927-8.001,11.779-11.748,17.827
	c-1.132,1.827-1.962,4.193-1.968,6.315c-0.111,44.39-0.083,88.78-0.087,133.169c0,1.364-0.045,2.728-0.068,4.091
	c-4.407,0-8.813,0-13.219,0c0-53.801,0-107.602,0-161.402C28.354,17.115,37.376,17.115,46.399,17.115z"/>
<path fill-rule="evenodd" clip-rule="evenodd" d="M106.146,112.249c0-1.154-0.067-2.314,0.015-3.464
	c0.176-2.504,1.534-4.146,3.982-4.604c2.434-0.453,4.816,0.473,5.347,2.807c0.672,2.947,0.858,6.195,0.368,9.168
	c-0.488,2.953-3.303,4.349-6.005,3.708c-2.798-0.662-3.839-2.667-3.728-5.409c0.03-0.734,0.004-1.471,0.004-2.206
	C106.136,112.249,106.141,112.249,106.146,112.249z"/>
<path fill-rule="evenodd" clip-rule="evenodd" d="M67.615,97.195c0.978,3.424,1.957,6.847,3.008,10.529c-2.234,0-4.159,0-6.489,0
	c0.966-3.569,1.91-7.06,2.854-10.551C67.197,97.18,67.406,97.188,67.615,97.195z"/>
</svg>
