<?xml version="1.0" encoding="utf-8"?>
<!-- Generator: Adobe Illustrator 16.0.0, SVG Export Plug-In . SVG Version: 6.00 Build 0)  -->
<!DOCTYPE svg PUBLIC "-//W3C//DTD SVG 1.1//EN" "http://www.w3.org/Graphics/SVG/1.1/DTD/svg11.dtd">
<svg version="1.1" id="Layer_1" xmlns="http://www.w3.org/2000/svg" xmlns:xlink="http://www.w3.org/1999/xlink" x="0px" y="0px"
	 width="200px" height="200px" viewBox="0 0 200 200" enable-background="new 0 0 200 200" xml:space="preserve">
<g>
	<path fill-rule="evenodd" clip-rule="evenodd" d="M96.054,102.617c-7.42-6.95-15.131-13.646-20.216-22.678
		c-2.477-4.405-3.746-9.072-2.072-14.101c1.281-3.854,3.758-6.997,6.697-9.635c4.985-4.478,10.179-8.726,15.365-12.974
		c4.975-4.076,9.946-8.135,13.82-13.347c5.291-7.119,6.915-14.991,4.942-23.623c-0.042-0.178-0.053-0.363-0.138-0.972
		c0.629,0.831,1.062,1.314,1.396,1.858c4.132,6.707,4.058,13.698,1.257,20.804c-2.821,7.153-7.643,12.911-13.191,18.062
		c-3.796,3.524-7.938,6.678-11.725,10.213c-2.244,2.094-4.288,4.468-6.09,6.957c-5.021,6.936-5.12,14.263-0.91,21.571
		c2.275,3.947,4.996,7.638,7.477,11.469c1.307,2.019,2.53,4.09,3.793,6.137C96.324,102.446,96.187,102.532,96.054,102.617z"/>
	<path fill-rule="evenodd" clip-rule="evenodd" d="M151.89,158.435c2.907,1.311,3.312,3.336,0.998,5.415
		c-2.426,2.178-5.449,3.268-8.462,4.293c-7.354,2.499-14.961,3.863-22.636,4.922c-11.657,1.61-23.373,2.179-35.126,2.117
		c-10.463-0.056-20.912-0.523-31.302-1.827c-6.167-0.772-12.315-1.685-18.459-2.62c-1.294-0.198-2.578-0.676-3.783-1.212
		c-2.968-1.324-3.348-3.519-0.847-5.567c1.564-1.281,3.336-2.38,5.161-3.259c5.047-2.431,10.402-3.889,15.993-4.313
		c1.57-0.118,3.17,0.183,4.757,0.289c0.001,0.156,0.003,0.312,0.004,0.469c-1.178,0.159-2.405,0.162-3.525,0.508
		c-3.523,1.086-7.033,2.226-10.486,3.509c-1.098,0.41-2.452,1.119-2.314,2.586c0.131,1.391,1.563,1.658,2.648,2.072
		c5.053,1.934,10.36,2.716,15.691,3.338c12.116,1.412,24.288,1.705,36.463,1.37c7.931-0.221,15.854-0.772,23.771-1.321
		c7.439-0.514,14.845-1.406,22.095-3.208c2.465-0.611,4.912-1.479,7.197-2.588C152.204,162.205,152.559,160.988,151.89,158.435z"/>
	<path fill-rule="evenodd" clip-rule="evenodd" d="M135.649,42.197c-2.174,1.334-4.359,2.652-6.521,4.008
		c-5.566,3.492-11.058,7.104-15.805,11.691c-1.528,1.478-2.931,3.129-4.162,4.865c-2.752,3.881-3.067,8.059-0.731,12.226
		c1.483,2.646,3.301,5.106,4.932,7.671c0.941,1.48,1.96,2.937,2.683,4.522c1.328,2.917,1.244,5.958,0.008,8.879
		c-2.466,5.832-7.215,9.458-12.463,12.566c0.895-1.268,1.891-2.477,2.666-3.812c2.79-4.801,2.299-9.402-1.093-13.797
		c-2.171-2.812-4.41-5.66-6.012-8.802c-4.113-8.067-2.639-16.157,3.688-22.826c5.727-6.036,12.849-9.91,20.393-13.062
		c3.807-1.59,7.774-2.795,11.672-4.169c0.212-0.075,0.441-0.099,0.663-0.147C135.595,42.072,135.623,42.134,135.649,42.197z"/>
	<path fill-rule="evenodd" clip-rule="evenodd" d="M71.904,143.916c-1.449,2.004-1.176,3.158,1.27,3.783
		c2.655,0.678,5.391,1.159,8.119,1.383c4.402,0.36,8.852,0.838,13.234,0.545c6.473-0.432,12.902-1.503,19.351-2.279
		c0.484-0.057,1.062-0.067,1.48,0.136c2.937,1.441,5.843,2.945,9.045,4.572c-3.021,1.015-5.877,2.095-8.801,2.928
		c-9.186,2.611-18.593,3.396-28.09,2.863c-5.792-0.328-11.548-1.167-16.958-3.423c-1.686-0.702-3.339-1.657-4.743-2.815
		c-1.96-1.616-1.837-3.697,0.277-5.111c1.744-1.165,3.72-1.985,5.592-2.96C71.755,143.664,71.83,143.79,71.904,143.916z"/>
	<path fill-rule="evenodd" clip-rule="evenodd" d="M75.186,103.504c-3.968,1.289-7.865,2.48-11.702,3.839
		c-1.595,0.566-3.146,1.363-4.569,2.286c-1.772,1.148-1.648,2.524,0.346,3.145c2.294,0.713,4.688,1.245,7.077,1.492
		c9.297,0.961,18.623,0.688,27.935,0.266c13.103-0.597,26.132-1.955,39.165-4.262c-3.187,2.456-8.858,4.707-13.935,5.623
		c-8.988,1.621-18.043,2.711-27.171,2.877c-8.362,0.15-16.737,0.184-25.095-0.086c-5.968-0.192-11.944-0.824-17.723-2.514
		c-1.259-0.37-2.502-0.927-3.617-1.616c-1.182-0.732-1.213-1.789-0.175-2.723c0.662-0.594,1.439-1.098,2.239-1.49
		C56.512,106.145,65.527,103.771,75.186,103.504z"/>
	<path fill-rule="evenodd" clip-rule="evenodd" d="M127.463,133.139c-5.625,1.152-10.887,2.385-16.203,3.278
		c-8.026,1.349-16.14,1.938-24.28,1.728c-7.412-0.19-14.817-0.674-21.914-3.106c-1.55-0.53-3.066-1.312-4.416-2.242
		c-1.859-1.283-1.942-3.176-0.307-4.716c2.044-1.923,4.615-2.894,7.538-3.949c-0.56,0.835-0.953,1.341-1.261,1.894
		c-0.786,1.406-0.617,2.624,0.854,3.206c1.911,0.758,3.968,1.405,6.001,1.543c6.636,0.456,13.289,0.927,19.933,0.893
		c8.559-0.044,17.031-1.31,25.433-2.947c1.044-0.202,1.839-0.063,2.747,0.617C123.318,130.632,125.216,131.705,127.463,133.139z"/>
	<path fill-rule="evenodd" clip-rule="evenodd" d="M55.501,178.832c1.949,0.23,3.893,0.51,5.847,0.686
		c5.301,0.473,10.6,1.06,15.911,1.306c5.892,0.273,11.8,0.348,17.698,0.278c9.465-0.113,18.903-0.703,28.309-1.883
		c9.109-1.142,18.137-2.648,26.896-5.463c4.257-1.366,8.438-2.938,11.963-6.243c-0.269,1.831-1.108,3.109-2.195,4.245
		c-2.813,2.943-6.444,4.505-10.187,5.798c-6.625,2.288-13.495,3.465-20.427,4.368c-10.255,1.335-20.564,1.901-30.885,1.771
		c-8.743-0.11-17.484-0.653-26.214-1.193c-5.215-0.323-10.375-1.188-15.354-2.892c-0.481-0.163-0.946-0.378-1.417-0.568
		C55.463,178.972,55.482,178.9,55.501,178.832z"/>
	<path fill-rule="evenodd" clip-rule="evenodd" d="M138.694,104.77c1.342-1.83,3.318-2.193,5.262-2.549
		c3.984-0.729,7.854-0.403,11.489,1.537c6.443,3.441,8.56,10.672,5.016,17.064c-1.844,3.328-4.537,5.844-7.627,7.968
		c-5.587,3.839-11.848,6.113-18.476,7.658c0.374-0.268,0.728-0.576,1.128-0.797c5.566-3.06,10.912-6.422,15.127-11.282
		c1.95-2.248,3.541-4.741,4.123-7.709c1.135-5.795-2.532-11.162-8.357-12.481c-2.313-0.522-4.527-0.202-6.75,0.381
		C139.319,104.642,139.005,104.7,138.694,104.77z"/>
</g>
</svg>
