<?xml version="1.0" encoding="UTF-8" standalone="no"?>
<!-- Generator: Adobe Illustrator 19.0.0, SVG Export Plug-In . SVG Version: 6.00 Build 0)  -->

<svg
   xmlns:dc="http://purl.org/dc/elements/1.1/"
   xmlns:cc="http://creativecommons.org/ns#"
   xmlns:rdf="http://www.w3.org/1999/02/22-rdf-syntax-ns#"
   xmlns:svg="http://www.w3.org/2000/svg"
   xmlns="http://www.w3.org/2000/svg"
   xmlns:sodipodi="http://sodipodi.sourceforge.net/DTD/sodipodi-0.dtd"
   xmlns:inkscape="http://www.inkscape.org/namespaces/inkscape"
   version="1.1"
   id="Capa_1"
   x="0px"
   y="0px"
   viewBox="0 0 512.001 512.001"
   style="enable-background:new 0 0 512.001 512.001;"
   xml:space="preserve"
   sodipodi:docname="3d.svg"
   inkscape:version="0.92.2 (5c3e80d, 2017-08-06)"><metadata
     id="metadata61"><rdf:RDF><cc:Work
         rdf:about=""><dc:format>image/svg+xml</dc:format><dc:type
           rdf:resource="http://purl.org/dc/dcmitype/StillImage" /><dc:title></dc:title></cc:Work></rdf:RDF></metadata><defs
     id="defs59" /><sodipodi:namedview
     pagecolor="#ffffff"
     bordercolor="#666666"
     borderopacity="1"
     objecttolerance="10"
     gridtolerance="10"
     guidetolerance="10"
     inkscape:pageopacity="0"
     inkscape:pageshadow="2"
     inkscape:window-width="1680"
     inkscape:window-height="987"
     id="namedview57"
     showgrid="false"
     inkscape:measure-start="319.469,184.471"
     inkscape:measure-end="475.944,86.6747"
     inkscape:zoom="0.92187324"
     inkscape:cx="208.6695"
     inkscape:cy="223.54747"
     inkscape:window-x="-8"
     inkscape:window-y="-8"
     inkscape:window-maximized="1"
     inkscape:current-layer="Capa_1" /><g
     id="g897"
     transform="translate(0,4)"><g
       id="g895"
       transform="translate(150.16114,-930.24453)"
       style="fill:#ea2845;fill-opacity:1"><path
         d="m 116.78044,1040.1545 v -61.2397 c 0,-5.6456 -4.6886,-10.222 -10.47029,-10.222 -5.78169,0 -10.47029,4.5764 -10.47029,10.222 v 61.2397 c 9.18874,-3.9203 13.35806,-2.1562 20.94058,0 z"
         id="path893"
         inkscape:connector-curvature="0"
         style="fill:#ea2845;fill-opacity:1;stroke-width:1.03453732"
         sodipodi:nodetypes="cssscc" /></g></g><path
     sodipodi:nodetypes="cssscc"
     style="fill:#ea2845;fill-opacity:1;stroke-width:1.03453732"
     inkscape:connector-curvature="0"
     id="path899"
     d="m 409.17264,405.87457 52.41662,31.66701 c 4.83221,2.91934 11.17374,1.2727 14.16345,-3.676 2.98971,-4.94869 1.49712,-11.32824 -3.33509,-14.24758 L 420.001,387.951 c -1.396,9.89206 -5.06189,12.54847 -10.82836,17.92357 z" /><g
     transform="rotate(121.13788,266.13497,308.72839)"
     id="g903"><g
       style="fill:#ea2845;fill-opacity:1"
       transform="translate(150.16114,-930.24453)"
       id="g901"><path
         d="m 289.27393,1330.8649 54.2092,28.4898 c 4.99753,2.6265 6.86734,8.9058 4.17752,14.0237 -2.68965,5.118 -8.92197,7.1392 -13.91935,4.5129 l -54.2093,-28.4898 c 7.74501,-6.3101 8.12309,-10.8214 9.74193,-18.5366 z"
         id="path905"
         inkscape:connector-curvature="0"
         style="fill:#ea2845;fill-opacity:1;stroke-width:1.03453732"
         sodipodi:nodetypes="cssscc" /></g></g><g
     id="g6"
     style="fill:#ea2845;fill-opacity:1"><g
       id="g4"
       style="fill:#ea2845;fill-opacity:1"><path
         d="M502.001,438c-5.52,0-10,4.48-10,10c0,5.52,4.48,10,10,10c5.52,0,10-4.48,10-10C512,442.48,507.521,438,502.001,438z"
         id="path2"
         style="fill:#ea2845;fill-opacity:1" /></g></g><g
     id="g12"
     style="fill:#ea2845;fill-opacity:1"><g
       id="g10"
       style="fill:#ea2845;fill-opacity:1"><path
         d="M256.001,0c-5.52,0-10,4.48-10,10s4.48,10,10,10s10-4.48,10-10S261.521,0,256.001,0z"
         id="path8"
         style="fill:#ea2845;fill-opacity:1" /></g></g><g
     id="g18"
     style="fill:#ea2845;fill-opacity:1"><g
       id="g16"
       style="fill:#ea2845;fill-opacity:1"><path
         d="M10.001,438c-5.52,0-10,4.48-10,10c0,5.52,4.48,10,10,10s10-4.48,10-10C20.001,442.48,15.521,438,10.001,438z"
         id="path14"
         style="fill:#ea2845;fill-opacity:1" /></g></g><g
     id="g24"><g
       id="g22"><path
         id="path879"
         d="M 426.001,393.951 V 198.65 c 0,-3.74 -2.087,-7.168 -5.41,-8.885 L 266.001,109.91 c -7.81722,-3.06813 -9.49817,-5.9445 -20,0 L 91.412,189.765 c -3.324,1.717 -5.411,5.145 -5.411,8.885 v 195.301 c 0.08544,11.33032 0.650285,10.38812 10.036,17.308 l 154.565,99.159 c 1.645,1.055 3.522,1.583 5.399,1.583 1.884,0 3.767,-0.531 5.416,-1.594 l 154.547,-99.148 c 9.96133,-6.3446 9.95122,-6.3612 10.037,-17.308 z m -180,89.753 -131.047,-84.072 94.824,-58.282 c 4.704,-2.892 6.175,-9.051 3.283,-13.756 -2.892,-4.706 -9.052,-6.174 -13.756,-3.283 l -93.304,57.347 v -163.86 l 140,83.869 z m 10,-199.361 -140.807,-84.352 130.807,-67.57 V 236 c 0,5.523 4.478,10 10,10 5.522,0 10,-4.477 10,-10 V 132.421 l 130.807,67.57 z m 150,97.315 -93.304,-57.348 c -4.703,-2.892 -10.862,-1.421 -13.756,3.283 -2.892,4.705 -1.422,10.864 3.283,13.756 l 94.824,58.282 -131.047,84.072 V 301.666 l 140,-83.869 z"
         inkscape:connector-curvature="0"
         sodipodi:nodetypes="csccccscccscccccccccccccccssscccccccccccc" /></g></g><g
     id="g26" /><g
     id="g28" /><g
     id="g30" /><g
     id="g32" /><g
     id="g34" /><g
     id="g36" /><g
     id="g38" /><g
     id="g40" /><g
     id="g42" /><g
     id="g44" /><g
     id="g46" /><g
     id="g48" /><g
     id="g50" /><g
     id="g52" /><g
     id="g54" /><g
     id="g887"
     transform="translate(-32.215367,542.29201)" /></svg>