<svg width="109" height="32" xmlns="http://www.w3.org/2000/svg" xmlns:xlink="http://www.w3.org/1999/xlink"><defs><path d="M12.934.338c.78-.45 1.74-.45 2.521 0l11.673 6.739c.78.45 1.26 1.283 1.26 2.184v13.478c0 .901-.48 1.733-1.26 2.184l-11.673 6.74c-.78.45-1.741.45-2.521 0L1.26 24.922A2.522 2.522 0 0 1 0 22.739V9.261c0-.901.48-1.733 1.26-2.184L12.935.337z" id="a"/></defs><g fill="none" fill-rule="evenodd"><path d="M108.632 11.899l-4.383 12.581c-1.28 3.64-2.488 5.019-5.663 5.019-1.208 0-2.156-.167-2.772-.31l.45-3.52c.403.048 1.114.12 1.73.12.757 0 1.208-.286 1.445-1.071l.095-.309-4.336-12.51h4.999l1.706 7.8h.094l1.66-7.8h4.975zM64.498 24.528h-3.91l-.615-1.428c-.782 1.047-1.99 1.713-3.672 1.713-2.726 0-4.147-1.57-4.147-4.186v-8.729h4.952v7.754c0 .904.284 1.356 1.042 1.356.593 0 1.185-.333 1.446-.642v-8.468h4.904v12.63zM94.252 24.527h-4.288l-.332-1.45c-.616.856-1.848 1.736-3.72 1.736-3.34 0-5.094-2.33-5.094-6.565 0-4.613 2.677-6.634 5.521-6.634 1.09 0 2.18.404 2.985 1.093V7.403h4.928v17.124zm-4.928-8.395c-.355-.38-.924-.666-1.611-.666-1.113 0-1.682.904-1.682 2.735 0 1.665.402 2.83 1.682 2.83.663 0 1.256-.238 1.611-.618v-4.28zM79.423 24.527h-4.288l-.333-1.45c-.615.856-1.847 1.736-3.719 1.736-3.34 0-5.094-2.33-5.094-6.565 0-4.613 2.677-6.634 5.52-6.634 1.09 0 2.18.404 2.986 1.093V7.403h4.928v17.124zm-4.928-8.395c-.356-.38-.925-.666-1.612-.666-1.113 0-1.681.904-1.681 2.735 0 1.665.402 2.83 1.681 2.83.664 0 1.256-.238 1.612-.618v-4.28zM43.58 24.47h-7.227V7.346h7.51c3.46 0 6.232 1.308 6.232 4.494 0 1.785-.948 3.283-2.795 3.663v.048c2.369.404 3.411 2.212 3.411 3.972 0 3.9-2.89 4.947-7.131 4.947zm-2.085-7.017v3.044h2.25c1.114 0 1.73-.665 1.73-1.569 0-.951-.734-1.475-1.801-1.475h-2.18zm1.942-6.16h-1.942v2.593h1.871c.972 0 1.777-.309 1.777-1.356 0-.927-.64-1.236-1.706-1.236z" fill="#1A86FD"/><g><mask id="b" fill="#fff"><use xlink:href="#a"/></mask><path d="M12.934.338c.78-.45 1.74-.45 2.521 0l11.673 6.739c.78.45 1.26 1.283 1.26 2.184v13.478c0 .901-.48 1.733-1.26 2.184l-11.673 6.74c-.78.45-1.741.45-2.521 0L1.26 24.922A2.522 2.522 0 0 1 0 22.739V9.261c0-.901.48-1.733 1.26-2.184L12.935.337z" fill="#0DA7FE" mask="url(#b)"/><path fill="#1A67FD" mask="url(#b)" d="M0 24.197L7.373 16l6.821 16.39z"/><path fill="#0DA7FE" mask="url(#b)" d="M7.373 16L.099 7.747 0 24.197z"/><path fill="#05BBFF" mask="url(#b)" d="M7.373 16L14.194-.39.1 7.747z"/><path fill="#00C9FF" mask="url(#b)" d="M14.194-.39l14.194 24.585L7.373 16"/><path fill="#1A86FD" mask="url(#b)" d="M14.194 32.418l14.194-8.221L7.373 16z"/><path fill="#05BBFF" mask="url(#b)" d="M28.389 24.195V7.805L14.194-.39z"/></g><path fill-opacity=".5" fill="#1A67FD" d="M17.195 14.617l1.801 1.802-.894.894-.907.908-5.073 5.072-1.802-1.802 5.073-5.072-5.073-5.073 1.802-1.802z"/><path fill="#D6FFFF" d="M18.996 15.61l-1.801-1.802-6.875 6.875 1.802 1.802z"/><path fill="#D6FFFF" d="M12.122 8.736l-1.802 1.801 6.875 6.875 1.801-1.802z"/></g></svg>