<?xml version="1.0" encoding="UTF-8" standalone="no"?>
<svg
   xmlns:dc="http://purl.org/dc/elements/1.1/"
   xmlns:cc="http://creativecommons.org/ns#"
   xmlns:rdf="http://www.w3.org/1999/02/22-rdf-syntax-ns#"
   xmlns:svg="http://www.w3.org/2000/svg"
   xmlns="http://www.w3.org/2000/svg"
   viewBox="0 0 405.33334 125.63933"
   height="125.63933"
   width="405.33334"
   xml:space="preserve"
   id="svg2"
   version="1.1"><metadata
     id="metadata8"><rdf:RDF><cc:Work
         rdf:about=""><dc:format>image/svg+xml</dc:format><dc:type
           rdf:resource="http://purl.org/dc/dcmitype/StillImage" /></cc:Work></rdf:RDF></metadata><defs
     id="defs6"><clipPath
       id="clipPath18"
       clipPathUnits="userSpaceOnUse"><path
         id="path16"
         d="M 0,94.229 H 304 V 0 H 0 Z" /></clipPath></defs><g
     transform="matrix(1.3333333,0,0,-1.3333333,0,125.63933)"
     id="g10"><g
       id="g12"><g
         clip-path="url(#clipPath18)"
         id="g14"><g
           transform="translate(95.2298,22.7404)"
           id="g20"><path
             id="path22"
             style="fill:#e51717;fill-opacity:1;fill-rule:nonzero;stroke:none"
             d="m 0,0 h -23.493 c -0.471,0 -0.908,-0.245 -1.153,-0.648 l -1.027,-1.683 -11.197,-18.354 c -0.55,-0.901 0.098,-2.055 1.153,-2.055 h 23.493 c 0.471,0 0.909,0.245 1.154,0.647 L 1.154,-2.055 C 1.703,-1.155 1.055,0 0,0" /></g><g
           transform="translate(59.5129,46.5688)"
           id="g24"><path
             id="path26"
             style="fill:#ef4848;fill-opacity:1;fill-rule:nonzero;stroke:none"
             d="M 0,0 C -1.055,0 -1.703,-1.155 -1.154,-2.055 L 0.041,-4.013 11.07,-22.091 c 0.246,-0.403 0.683,-0.648 1.154,-0.648 h 23.493 c 1.055,0 1.703,1.155 1.153,2.055 L 24.647,-0.648 C 24.401,-0.245 23.964,0 23.493,0 Z" /></g><g
           transform="translate(42.6667,22.5806)"
           id="g28"><path
             id="path30"
             style="fill:#cc0000;fill-opacity:1;fill-rule:nonzero;stroke:none"
             d="m 0,0 12.317,-20.19 c 0.527,-0.864 1.781,-0.864 2.307,0 l 1.47,2.409 L 26.94,0 c 0.264,0.432 0.264,0.975 0,1.408 l -12.316,20.19 c -0.526,0.864 -1.78,0.864 -2.307,0 L 0,1.408 C -0.264,0.975 -0.264,0.432 0,0" /></g><g
           transform="translate(52.7608,46.5713)"
           id="g32"><path
             id="path34"
             style="fill:#e51717;fill-opacity:1;fill-rule:nonzero;stroke:none"
             d="m 0,0 h -23.493 c -0.471,0 -0.908,-0.245 -1.153,-0.648 l -1.027,-1.683 -11.197,-18.354 c -0.55,-0.901 0.098,-2.055 1.153,-2.055 h 23.493 c 0.471,0 0.909,0.245 1.154,0.647 L 1.154,-2.055 C 1.703,-1.155 1.055,0 0,0" /></g><g
           transform="translate(17.0439,70.3997)"
           id="g36"><path
             id="path38"
             style="fill:#ef4848;fill-opacity:1;fill-rule:nonzero;stroke:none"
             d="M 0,0 C -1.055,0 -1.703,-1.155 -1.154,-2.055 L 0.041,-4.013 11.07,-22.091 c 0.246,-0.403 0.683,-0.648 1.154,-0.648 h 23.493 c 1.055,0 1.703,1.155 1.153,2.055 L 24.647,-0.648 C 24.401,-0.245 23.964,0 23.493,0 Z" /></g><g
           transform="translate(0.1977,46.4115)"
           id="g40"><path
             id="path42"
             style="fill:#cc0000;fill-opacity:1;fill-rule:nonzero;stroke:none"
             d="m 0,0 12.317,-20.19 c 0.527,-0.864 1.781,-0.864 2.307,0 l 1.47,2.409 L 26.94,0 c 0.264,0.432 0.264,0.975 0,1.408 l -12.316,20.19 c -0.526,0.864 -1.78,0.864 -2.307,0 L 0,1.408 C -0.264,0.975 -0.264,0.432 0,0" /></g><g
           transform="translate(95.2507,70.4011)"
           id="g44"><path
             id="path46"
             style="fill:#e51717;fill-opacity:1;fill-rule:nonzero;stroke:none"
             d="m 0,0 h -23.493 c -0.471,0 -0.908,-0.245 -1.153,-0.648 l -1.027,-1.683 -11.197,-18.354 c -0.55,-0.901 0.098,-2.055 1.153,-2.055 h 23.493 c 0.471,0 0.909,0.245 1.154,0.647 L 1.154,-2.055 C 1.703,-1.155 1.055,0 0,0" /></g><g
           transform="translate(59.5339,94.2295)"
           id="g48"><path
             id="path50"
             style="fill:#ef4848;fill-opacity:1;fill-rule:nonzero;stroke:none"
             d="M 0,0 C -1.055,0 -1.703,-1.155 -1.154,-2.055 L 0.041,-4.013 11.07,-22.091 c 0.246,-0.403 0.683,-0.648 1.154,-0.648 h 23.493 c 1.055,0 1.703,1.155 1.153,2.055 L 24.647,-0.648 C 24.401,-0.245 23.964,0 23.493,0 Z" /></g><g
           transform="translate(42.6877,70.2413)"
           id="g52"><path
             id="path54"
             style="fill:#cc0000;fill-opacity:1;fill-rule:nonzero;stroke:none"
             d="m 0,0 12.317,-20.19 c 0.527,-0.864 1.781,-0.864 2.307,0 l 1.47,2.409 L 26.94,0 c 0.264,0.432 0.264,0.975 0,1.408 l -12.316,20.19 c -0.526,0.864 -1.78,0.864 -2.307,0 L 0,1.408 C -0.264,0.975 -0.264,0.432 0,0" /></g><g
           transform="translate(141.4701,36.463)"
           id="g56"><path
             id="path58"
             style="fill:#000000;fill-opacity:1;fill-rule:nonzero;stroke:none"
             d="M 0,0 H -12.818 V 21.301 H 0 V 19.982 H -11.348 V 11.556 H -0.547 V 10.274 H -11.348 V 1.32 L 0,1.32 Z" /></g><g
           transform="translate(148.3995,36.463)"
           id="g60"><path
             id="path62"
             style="fill:#000000;fill-opacity:1;fill-rule:nonzero;stroke:none"
             d="M 0,0 V 21.301 H 1.452 L 15.005,2.62 h 0.076 v 17.251 l 1.451,1.43 V 0 H 15.175 L 1.546,18.795 H 1.452 V 1.43 Z" /></g><g
           transform="translate(173.7467,43.9656)"
           id="g64"><path
             id="path66"
             style="fill:#000000;fill-opacity:1;fill-rule:nonzero;stroke:none"
             d="m 0,0 c 0,-3.939 2.583,-6.466 6.73,-6.466 4.166,0 6.748,2.527 6.748,6.466 v 12.369 l 1.452,1.43 V -0.094 c 0,-4.656 -3.148,-7.73 -8.2,-7.73 -5.033,0 -8.2,3.074 -8.2,7.73 V 12.369 L 0,13.799 Z" /></g><g
           transform="translate(196.0394,36.463)"
           id="g68"><path
             id="path70"
             style="fill:#000000;fill-opacity:1;fill-rule:nonzero;stroke:none"
             d="m 0,0 v 19.871 l 1.47,1.43 V 0 Z" /></g><g
           transform="translate(204.8538,36.463)"
           id="g72"><path
             id="path74"
             style="fill:#000000;fill-opacity:1;fill-rule:nonzero;stroke:none"
             d="M 0,0 V 21.301 H 1.452 L 15.005,2.62 h 0.076 v 17.251 l 1.451,1.43 V 0 H 15.175 L 1.546,18.795 H 1.452 V 1.43 Z" /></g><g
           transform="translate(241.5485,36.463)"
           id="g76"><path
             id="path78"
             style="fill:#000000;fill-opacity:1;fill-rule:nonzero;stroke:none"
             d="M 0,0 H -12.818 V 21.301 H 0 V 19.982 H -11.348 V 11.556 H -0.547 V 10.274 H -11.348 V 1.32 L 0,1.32 Z" /></g><g
           transform="translate(113.2206,36.1419)"
           id="g80"><path
             id="path82"
             style="fill:#000000;fill-opacity:1;fill-rule:nonzero;stroke:none"
             d="m 0,0 c -5.731,0 -9.595,4.449 -9.595,11.084 0,6.56 3.808,10.858 9.595,10.858 3.969,0 7.176,-2.1 8.359,-5.381 C 8.033,16.236 7.197,15.418 7.197,15.418 6.349,18.604 3.544,20.605 0,20.605 c -4.92,0 -8.106,-3.733 -8.106,-9.501 0,-5.862 3.261,-9.765 8.106,-9.765 4.543,0 7.371,2.772 7.389,7.182 v 1.17 H 1.666 l 1.199,1.242 H 8.841 V 8.786 C 8.841,3.337 5.486,0 0,0" /></g><g
           transform="translate(250.4279,48.3597)"
           id="g84"><path
             id="path86"
             style="fill:#cc0000;fill-opacity:1;fill-rule:nonzero;stroke:none"
             d="m 0,0 v 7.785 h 5.447 c 2.976,0 4.826,-1.423 4.826,-3.715 C 10.273,1.56 8.308,0 5.146,0 Z m 0,-1.886 h 5.371 c 3.822,0 6.014,-1.539 6.014,-4.224 0,-2.608 -2.142,-4.165 -5.73,-4.165 H 0 Z m 9.112,1.162 c 2.011,0.835 3.292,2.69 3.292,4.927 0,3.315 -2.69,5.543 -6.693,5.543 h -7.862 v -21.982 h 8.013 c 4.733,0 7.674,2.318 7.674,6.051 0,2.697 -1.697,4.74 -4.424,5.461" /></g><g
           transform="translate(283.6936,56.1068)"
           id="g88"><path
             id="path90"
             style="fill:#cc0000;fill-opacity:1;fill-rule:nonzero;stroke:none"
             d="M 0,0 V 1.999 H -13.499 V -19.983 H 0 v 1.998 h -11.349 v 8.277 h 10.802 v 1.961 H -11.349 V 0 Z" /></g><g
           transform="translate(304,56.1068)"
           id="g92"><path
             id="path94"
             style="fill:#cc0000;fill-opacity:1;fill-rule:nonzero;stroke:none"
             d="M 0,0 V 1.999 H -13.499 V -19.983 H 0 v 1.998 h -11.349 v 8.277 h 10.802 v 1.961 H -11.349 V 0 Z" /></g></g></g></g></svg>