<svg id="Capa_1" data-name="Capa 1" xmlns="http://www.w3.org/2000/svg" viewBox="0 0 4535.43 1700.79"><defs><style>.cls-1{fill:#971914;}.cls-2{fill:#020202;}.cls-3{fill:#636261;}.cls-4{fill:#fff;}</style></defs><title>Mesa de trabajo 1</title><path class="cls-1" d="M931,962.35,141.73,590.76l0-1.32h7.51q322.64,0,645.28,0c50.26,0,100.52.17,150.78.24q89.57.11,179.15.17c18.64,0,37.3.43,55.92-.18,68.23-2.26,133-18.46,194-49.39,37.5-19,70.73-43.74,97.14-76.88,20.23-25.39,34.18-53.72,39-86.09,5.62-37.54-2.26-72.5-20.66-105.35a212.65,212.65,0,0,0-32.46-43.36,16.52,16.52,0,0,1-4.34-6.45l790.21,372.07c-4.29,1.71-7.45,1.12-10.46,1.12q-302.37,0-604.75,0-128.89,0-257.78-.23c-58.36,0-116.8-2.49-175.06.52-83.32,4.3-161,27.68-229.89,76.44-24.45,17.31-45.61,38.11-62.3,63.13-23,34.41-34.4,72-29.57,113.59,3.94,34,18.13,63.63,39,90.36a223.44,223.44,0,0,0,16,18.29C929.51,958.56,931,959.43,931,962.35Z"/><path class="cls-2" d="M3075.49,818c1.93-2.21,3.85-4.36,5.72-6.54,18.87-21.92,41.6-38,70.48-43,36.55-6.26,72.13-2.31,105.66,14.44a98.82,98.82,0,0,1,34.91,29.64l3.53,4.67c34-41.93,79.17-54.5,130.71-50.29,19.64,1.6,38.16,7.16,54.89,17.83,26.19,16.71,41.4,41.14,49.22,70.67,4,15,5.5,30.27,5.7,45.69.22,17,.09,34,0,51.06,0,6.15-.12,6.23-6.23,6.26q-29.18.12-58.36.11c-6,0-6-.09-6.07-6.3-.05-12.16.07-24.32,0-36.47a140.73,140.73,0,0,0-4.33-34.46c-8.54-32.64-28-50.46-61.27-54.94-36.7-4.93-65.35,9.19-87.14,38.42a32.46,32.46,0,0,0-6.63,21.07c.52,21.87.17,43.77.18,65.65,0,7.33.55,7.35-6.79,7.34-19.45,0-38.91.07-58.36,0-5.6,0-5.7-.11-5.71-5.79,0-20.8-.31-41.61,0-62.41.57-32.52-18-49.88-39.49-58-30.05-11.42-59.14-10.36-86.18,9.18-11.25,8.13-21.6,17-29.52,28.58a22.42,22.42,0,0,0-4.13,13.57c.24,23,.12,45.93.09,68.9,0,6.25-.08,6.35-6,6.38q-29.58.15-59.17.15c-5.6,0-5.71-.12-5.71-5.82q0-87.13,0-174.27c0-6,.11-6.1,6.31-6.14,11.62-.06,23.24.16,34.85-.12,3.9-.09,5.79,1.43,7.4,4.72,5.46,11.14,11.15,22.17,16.84,33.2C3072.11,813.3,3072.74,816,3075.49,818Z"/><path class="cls-2" d="M2595,960.79H2424c-2.16,0-4.33-.14-6.48,0-3.2.24-4.17-1.06-4-4.24a237.2,237.2,0,0,1,5.2-37.67c11.62-52.76,39.45-94.7,84.44-124.86,27.16-18.2,57.37-27.23,90-28.11,31.06-.83,61.64,2.61,90.33,15.18,53.45,23.43,84.39,64.56,93.48,122.13a195.07,195.07,0,0,1,1.6,50.06c-.68,6.82-.57,6.9-7.63,6.9q-87.94,0-175.89,0Zm-105.42-34.33c1.56,1.54,3,1.28,4.29,1.28q104.57,0,209.13,0c5.81,0,5.92-.11,5.77-5.65-1.1-42.33-27.13-76.52-63.21-89.66-16.26-5.92-33.09-7.34-50.24-6.71a110.56,110.56,0,0,0-100,73.7C2492.18,908.31,2489.74,917.42,2489.58,926.47Z"/><path class="cls-2" d="M1138.42,1026.52l-36.56,54.61c-18.62,27.81-37.37,55.54-55.74,83.52-3.22,4.9-6.61,6.57-12.41,6.47-21.87-.38-43.76-.15-65.64-.15h-6.75c-1.35-2.52.28-3.62,1.13-4.82q62.31-87.87,124.6-175.74c2.31-3.27,4.74-4.38,8.64-4.37q42.95.11,85.9-.21c3.72,0,6.5.61,9,3.87q69.19,89.35,138.61,178.53a8.07,8.07,0,0,1,.72,1.5c-1.17,2.32-3.32,1.18-5,1.19-24,.09-48.08-.07-72.12.17-4.61,0-7.28-1.57-9.94-5.15q-49.36-66.26-99-132.31C1142.32,1031.48,1140.64,1029.38,1138.42,1026.52Z"/><path class="cls-2" d="M1633.5,664.18c1,2.55.5,5.27.5,7.93q.06,47,0,94c0,7,.06,7.08,7,7.08q47,0,94,0c9,0,8.14-.53,8.14,8.43,0,13.77,0,27.55,0,41.32,0,6.11-.12,6.2-6.23,6.21q-47,.05-94,0c-1.89,0-3.78,0-5.67,0-2.41-.05-3.36,1.17-3.29,3.48.06,1.89,0,3.78,0,5.67q0,58.74,0,117.47c0,7.56.61,6.87-7,6.91l-55.9.27c-7.53,0-7.58,0-7.59-7.32q0-58.74,0-117.47c0-10.28,1-8.93-9.14-9-10.8-.06-21.61-.11-32.41,0-3.38,0-4.8-.92-4.76-4.56q.23-23.49,0-47c0-3.72,1.58-4.54,4.84-4.52,11.61.1,23.22.08,34.84,0,6.55,0,6.62-.11,6.64-6.75,0-23,0-45.91,0-68.86,0-7.8-1.49-6.88,7.16-10.17q29.47-11.22,58.89-22.59C1630.86,664.3,1632,663.6,1633.5,664.18Z"/><path class="cls-2" d="M1140.12,909l38.35-52.45c18.8-25.71,37.72-51.33,56.28-77.21,3.38-4.71,6.94-6.38,12.67-6.28,20.25.35,40.5.1,60.76.19,2.58,0,5.35-.88,7.82.84-.08,2.76-2.17,4.3-3.55,6.16q-65.91,88.73-131.79,177.48c-3.45,4.67-7,6.34-12.67,6.24-20.25-.33-40.51-.22-60.75.07-4.58.06-7.25-1.43-9.81-5.19q-61.22-90-122.67-179.92c-1-1.45-2.73-2.68-2.21-5,1.9-1.48,4.13-.71,6.17-.72,21.6-.07,43.21.15,64.81-.18,5.25-.08,8.21,1.55,11.06,6q39.74,61.54,79.94,122.79C1136.1,904.23,1137.29,907,1140.12,909Z"/><path class="cls-2" d="M4155.5,1080.2c13.77,8.56,26.85,16.6,40.75,23.21,15.43,7.34,31.2,13.56,48.42,15a93.55,93.55,0,0,0,39.12-4.64c18.68-6.53,28.78-20.12,31.43-39.5,2.56-18.68-3-34.58-16.28-47.94-11.42-11.46-25-19.66-39.38-26.65-11.4-5.54-22.94-10.8-34.39-16.24-2.34-1.11-5-1.76-7.29-4.91h7.54c39.72-.06,79.44,0,119.15-.31,5.34,0,9.06,1.67,12.83,5.19,20.84,19.48,31,43.7,32.56,71.86.88,16.3-.24,32.41-5.61,48-10.28,29.73-31.27,49.23-59.54,61.5-21.62,9.38-44.47,12.69-67.87,13.42-42.49,1.32-82.53-7.7-120.07-27.66-7.35-3.91-6.53-2.47-3.67-10.22C4140.47,1120.57,4147.82,1100.88,4155.5,1080.2Z"/><path class="cls-2" d="M2712.9,1084a17.7,17.7,0,0,1,2.11,2.44c8.61,14.65,17.08,29.39,25.82,44,1.91,3.18,1.65,5.05-1.23,7.42a105.44,105.44,0,0,1-19.44,13.08c-49.31,24.75-101.79,33.6-155.75,24.22-67.39-11.71-112.52-52.74-137.75-115.75-9.1-22.73-12.83-46.74-13.4-71.21-.12-5.07-.06-5.17,5.33-5.19,20.79-.08,41.59-.07,62.38-.13,7.24,0,6.41.08,6.68,6.81a178.19,178.19,0,0,0,7,43.84c14.59,49.25,52.88,80.43,104.13,84.51,37.18,3,72-4,103-25.69C2705.52,1089.74,2709.09,1086.89,2712.9,1084Z"/><path class="cls-2" d="M4315,956.85q-42.88,0-85.76,0-22.29,0-44.57.11c-3,0-5.75-.07-8.31-2.22-20.8-17.5-36.88-38.09-41.3-65.71-8.18-51.17,12.37-89.69,58-110.06,26.77-12,55.11-15,84-12.32,31.19,2.88,60.55,12.94,89.41,24.57,5.22,2.1,5.27,2.26,3.62,7.65-6,19.59-12.07,39.15-18.2,59-3.3-.21-5.18-2.75-7.45-4.38-18.41-13.26-38.21-23.4-60.91-26.71-17.07-2.49-34-2-49.94,5.63-23.3,11.2-31.52,28.55-22.11,55.57,3.09,8.87,8.8,16,15.81,22.19a93.59,93.59,0,0,0,23.21,14.62q26.49,12.11,53,24.21c4.09,1.88,8.1,3.93,12.15,5.9Z"/><path class="cls-2" d="M2207.65,841.1c-4.88-2.69-9-5.2-13.3-7.3-27.25-13.22-53.55-11.1-78,6.49-23.49,16.91-37.72,40.4-44.78,68.31a137,137,0,0,0-3.82,34.52c0,4.86-.1,9.73,0,14.59.09,3.18-1.27,4.45-4.35,4.15a16.11,16.11,0,0,0-1.62,0c-19.72,0-39.44.11-59.16.09-5.63,0-5.75-.13-5.75-5.82q0-88.74-.11-177.49c0-4.27,1.27-5.57,5.48-5.53q30,.26,60,0c4.1,0,5.67,1.12,5.6,5.48-.24,15.39-.09,30.8-.09,46.19v8.94c3.37-2.1,4.18-5,5.66-7.32,15.72-24.59,36.14-43.55,64.09-53.4,17.56-6.19,35.76-8.12,54.26-6.85a340,340,0,0,1,40.08,5.5c1.55.29,3,.83,4.91,1.35Z"/><path class="cls-2" d="M1761.52,1105.82c3.29,19.29,6.48,38.16,9.77,57,.58,3.32-.4,4.66-3.83,5.49a373.25,373.25,0,0,1-63.21,9.19c-8.88.58-17.81.64-26.72.67-49.68.15-82.8-25.06-103.45-68.52-7.87-16.56-10.47-34.52-10.53-52.79q-.09-32.82,0-65.64c0-6.26.1-6.36,6-6.38,19.72-.07,39.44.06,59.16-.2,4.4-.06,5.37,1.43,5.39,5.51.08,19.71-.81,39.43,1.11,59.12a142.29,142.29,0,0,0,5.1,27c7.49,25.09,24.79,38.21,50.32,41.56,21.47,2.82,41.9-1,61.8-8.88C1755.17,1107.86,1757.7,1106.18,1761.52,1105.82Z"/><path class="cls-2" d="M3892.51,865.85q0,42.55,0,85.09c0,6.38-.07,6.44-6.63,6.46q-28.77.09-57.54.09c-6.87,0-6.32.51-6.32-6.77q0-53.49,0-107c0-1.35,0-2.7,0-4.05-.08-7-.08-7-7.09-7-14,0-28.1-.14-42.14.07-4.11.06-5.58-1-5.5-5.4.26-16.2.06-32.41.13-48.62,0-5.39.14-5.5,6.08-5.51q56.73-.05,113.45,0c5.45,0,5.55.13,5.55,5.94Q3892.54,822.5,3892.51,865.85Z"/><path class="cls-2" d="M3465.68,1075.3q0-44.14,0-88.29c0-6.64.08-6.7,6.53-6.73q28.35-.1,56.7-.1c6.87,0,7.47-1.63,7.47,7.44q0,71.28,0,142.56c0,11.88-.1,23.76.05,35.64,0,3.67-.87,5.27-5,5.23-20.25-.19-40.5-.25-60.75,0-4.87.07-5.09-2.19-5.08-5.88C3465.71,1135.24,3465.68,1105.27,3465.68,1075.3Z"/><path class="cls-2" d="M3235.59,982.28a5.84,5.84,0,0,1,4.3-1.19c20.24-.06,40.48-.14,60.72-.13,5.72,0,5.84.12,5.84,5.73q0,89.05,0,178.11c0,6.05-.12,6.14-6.31,6.16-19.16,0-38.32,0-57.48,0-7.35,0-7.08.42-7.07-7q0-50.6,0-101.2v-80.5Z"/><path class="cls-2" d="M3005.5,1075.56q0-43.72,0-87.44c0-6.53.08-6.59,6.59-6.61q29.15-.09,58.29-.07c6,0,6,.1,6,6.32q0,88.25,0,176.49c0,6.61-.08,6.68-6.55,6.7q-29.15.06-58.29,0c-6,0-6.07-.11-6.08-6.34Q3005.46,1120.09,3005.5,1075.56Z"/><path class="cls-2" d="M2067.78,1078.08q0,42.91,0,85.82c0,7-.07,7.05-7,7.06q-27.93,0-55.87,0c-8.53,0-8,.89-8-7.71q0-49,0-98,0-37.65,0-75.3c0-6,.11-6.14,6.27-6.18q29.15-.18,58.29-.21c6.16,0,6.27.11,6.28,6.22Q2067.82,1033.95,2067.78,1078.08Z"/><path class="cls-2" d="M3892.51,1075.57q0,44.18,0,88.36c0,8.06-.22,7-7,7-18.37,0-36.75,0-55.12,0-8.74,0-8.39,1.36-8.39-8.11q0-74.58,0-149.16c0-9.46,0-18.92,0-28.37,0-5.5.12-5.58,5.86-5.6q28.78-.12,57.55-.12c7.78,0,7.06-.7,7.06,6.81Q3892.52,1031,3892.51,1075.57Z"/><path class="cls-2" d="M3817.21,665.53c.51-24.76,19.5-42.83,44.61-42.45,23.7.36,43.25,20.38,42.86,43.86a44.09,44.09,0,0,1-45,43.57C3835.6,710,3816.71,690,3817.21,665.53Z"/><path class="cls-3" d="M2991.47,1310.06c-4.57,0-9.15-.09-13.72,0-2.85.08-4.59-.54-4.5-3.93q.24-9.28,0-18.56c-.09-3.37,1.62-4,4.48-3.95,9.42.1,18.84.16,28.25,0,3.38-.07,4.11,1.46,4.07,4.36-.09,5.92-.21,11.85,0,17.75.16,3.82-1.7,4.47-4.9,4.36C3000.62,1309.94,2996,1310.06,2991.47,1310.06Z"/><path class="cls-4" d="M2489.58,926.47c.17-9,2.6-18.16,5.7-27a110.56,110.56,0,0,1,100-73.7c17.15-.63,34,.79,50.24,6.71,36.08,13.13,62.11,47.33,63.21,89.66.14,5.54,0,5.65-5.77,5.65q-104.57,0-209.13,0C2492.54,927.74,2491.14,928,2489.58,926.47Z"/><path class="cls-3" d="M3930.89,1364c-8.24,23.58-14.21,47.91-22.3,72h-37.32l-33.43-108.75h35.78l18.48,73.25,2.08,0c8.65-24,15-48.73,23.5-73.28h30.63l21.7,73.25,2,.06c7.17-24.12,11.83-48.94,18.77-73.44h33.33c.17,6-27.37,97.05-32.89,109h-36.45l-22-72.05Z"/><path class="cls-3" d="M3382,1427.7v-32.45c3.93-1.78,5.85,1.28,8.14,2.76,17.38,11.23,36.25,16.87,57,14.78a38.82,38.82,0,0,0,14.56-4.32c8.7-4.81,9-15,.67-20.48a42.27,42.27,0,0,0-12.68-5.07c-9.68-2.48-19.63-4-29.21-6.77a84.32,84.32,0,0,1-20.07-8.47c-21.43-13-24.82-43.06-7.29-61.06a53.5,53.5,0,0,1,21.06-13.41c28.78-9.9,56.94-5.68,85.28,3.69v33.21a83.53,83.53,0,0,1-7.56-3.61,86,86,0,0,0-37.26-12.79c-7.92-.77-15.73-.3-23.19,2.49a23.42,23.42,0,0,0-8.14,5c-5.14,5.1-4.42,12.95,1.77,16.75a46.83,46.83,0,0,0,12.75,4.94c11,2.85,22.11,5.12,33.1,8a68.67,68.67,0,0,1,12.86,4.9c24,11.75,30,42,12.42,62.29-10.28,11.89-24,17.43-39,19.7a139,139,0,0,1-68.72-7c-1.27-.46-2.56-.9-3.79-1.45A25.51,25.51,0,0,1,3382,1427.7Z"/><path class="cls-3" d="M2782.88,1344.57v27.07H2720c-.48,12.81-.36,24.55-.09,36.9,7.66,1.89,14.94.82,22.11,1,7.58.18,15.16,0,22.74,0h22.64c1.5,8.91,1,17.36.44,26.37h-103.3c-1.68-5.75-2.15-134.08-.53-144,5.77-1.95,91.68-2.59,103.5-.61,1.38,8.21.87,16.65.31,26.17h-67.42v26.73c10.42.77,20.63.27,30.8.35S2771.74,1344.57,2782.88,1344.57Z"/><path class="cls-3" d="M4116.24,1364.25c.07-9.16-4.21-13.51-11.1-15.47-10.62-3-21.43-2.9-32.15-.66-5,1-9.85,2.9-14.79,4.31-2,.57-4,.92-6.55,1.47-2.28-8.58-.79-16.53-1.1-25.44,8.63-1.46,16.5-3.24,24.48-4.06,16.21-1.67,32.44-2.12,48.4,2.17,18.5,5,26.59,15.48,26.64,34.6.06,22.21,0,44.42,0,66.64v8h-32.78l-1.64-10.43c-3.39,2.21-6,3.91-8.62,5.63-12.41,8.2-25.91,10.68-40.33,7.25-14.71-3.49-24.6-14.71-25.75-29.78-1.3-17.06,5.39-27.63,19.31-34.23,13-6.15,27.1-7.16,41.11-8.48C4106.16,1365.3,4110.93,1364.78,4116.24,1364.25Zm.25,20.16c-11.3.57-20.92,1.33-30.19,4.42a18.4,18.4,0,0,0-6.22,3.62c-4.24,3.76-5,8.74-3.95,14.08a11.2,11.2,0,0,0,9.21,9.18c9.5,2,18.89,1.49,27.1-4.47,1.78-1.29,3.72-3.64,3.87-5.63C4116.79,1399,4116.49,1392.27,4116.49,1384.4Z"/><path class="cls-3" d="M4393.09,1388h-79.86c-.87,11.65,5.2,20.79,16.42,24.86a56.14,56.14,0,0,0,37.43.51c5.87-1.93,11.41-4.85,17.08-7.38,1.91-.86,3.75-1.9,6.24-3.17.54,2.36,1.22,4.1,1.29,5.85.17,4.32.08,8.66.07,13,0,9.28,0,9.32-9.21,12.3a114.2,114.2,0,0,1-63.21,2.66c-27.26-6.6-41.92-25.2-41.73-53.14,0-7.22.61-14.73,2.69-21.58,7.21-23.82,25-35.34,48.61-37.87a102.55,102.55,0,0,1,29.8,1.51c16.8,3.23,27.69,13.88,32.42,30.52C4394,1366,4394.17,1376.22,4393.09,1388Zm-34.21-20.35c.41-9.78-2-17-10-20.86-9.7-4.65-19.56-3.73-28.35,2.45-6,4.24-8.7,10.5-7.89,18.41Z"/><path class="cls-3" d="M3583.45,1440.4c-5.88-.76-11.87-1.07-17.63-2.35-21.29-4.74-34.81-17.8-40-39a73.24,73.24,0,0,1,0-34.6c5.49-23.26,22.93-38.36,47.88-40.52a103.21,103.21,0,0,1,26.64,1c26.08,4.62,42.11,22.54,43.83,49a93.58,93.58,0,0,1-1.92,26.56c-5.26,23-24.68,37.87-49.75,39.27-3,.17-6,0-8.93,0Zm-24.66-59.67c1.17,7.31,1.59,13.57,3.26,19.47,2.92,10.33,10.35,15.68,20.81,16.07,11.77.44,19.65-4.14,23.28-14.88a59.11,59.11,0,0,0-.89-41.24c-3.65-9.37-11.2-13.17-21.16-13.22s-17.5,4.12-20.8,13.55C3560.92,1367.23,3560.11,1374.53,3558.79,1380.73Z"/><path class="cls-3" d="M3098.72,1322.74c6.93,1,14,1.38,20.77,3.11,22.44,5.75,36.79,23.31,38.66,47.6a95.09,95.09,0,0,1-1.21,23.39c-3.82,21.88-18.77,36.81-40.46,41.31a86.44,86.44,0,0,1-36.26,0c-21.68-4.71-35.31-18-40.51-39.52a73.34,73.34,0,0,1,0-33.82c5.5-24.1,24.36-39.59,50-41.21,3-.19,6,0,8.93,0Zm-26.11,58.64,1,.25c.2,3.77.25,7.56.66,11.32a37.11,37.11,0,0,0,1.65,7.09c3.26,10.28,10.37,15.8,20.77,16.24,11.81.5,19.75-4,23.42-14.68a59.17,59.17,0,0,0-.73-41.25c-3.58-9.36-11.05-13.31-21-13.4s-17.56,3.94-20.93,13.36C3075,1367,3074.14,1374.32,3072.61,1381.37Z"/><path class="cls-3" d="M3235.44,1476.81h-37.11c1.65-4.13,3-7.59,4.41-11,3.24-7.73,6.34-15.52,9.89-23.11,2.12-4.54,1.94-8.57.11-13.17-12.29-30.88-24.39-61.85-36.52-92.8-1.16-2.95-2.09-6-3.35-9.64h35.56L3234.1,1396c3.87-1,4-4.09,4.78-6.39,6.55-18.32,13-36.69,19.48-55,.89-2.5,2-4.94,3-7.53h34.92Z"/><path class="cls-3" d="M2820,1327.15h32.5l1.8,11.05c3.06-1.85,5.5-3.22,7.84-4.75,9.24-6,19.08-10,30.4-9.85,22.19.26,36.23,13.47,36.72,35.74.43,19.76.12,39.53.14,59.3,0,5.62,0,11.24,0,17.35h-33.18c-.21-3.09-.55-6.21-.62-9.33-.38-18.94-.66-37.89-1.09-56.83a34.54,34.54,0,0,0-1.29-8c-1.55-5.82-5.48-9.11-11.41-10.11a37.86,37.86,0,0,0-22.16,3.06c-4.6,2-6.43,5-6.38,10,.19,20.31.07,40.62.07,60.93,0,3.19,0,6.38,0,10.17H2820Z"/><path class="cls-3" d="M3733.51,1326.54v22.38l-25.44,1.12c-.35,14.76-.12,29-.16,43.23,0,14,0,28.07,0,42.66h-33.13a88.8,88.8,0,0,1-.88-8.95c-.08-22.21,0-44.41-.07-66.62,0-3.18-.33-6.36-.53-10l-14.32-1.73v-21.31l14.07-1.22c.37-3.28.77-6.41,1.07-9.56,1.87-19.21,11-30.09,30-32.73,10.58-1.47,21.56-.18,32.35,0,1.52,0,3,.87,4.84,1.43v22.31c-2.24,0-4,.1-5.82,0-4.83-.32-9.69-1.25-14.49-1-11,.58-15.61,7.73-12.73,20Z"/><path class="cls-3" d="M3793.2,1294.67l.82,31.74h31.55c1.91,7.67,1.26,14.53.64,21.89-10.43,2.81-21.14-.38-32,2.24-.19,2.33-.55,4.67-.55,7,0,13.53,0,27.07.14,40.6.17,13.92,8,20.19,21.67,17.41,3.37-.69,6.68-1.71,10.72-2.76v23c-3.65.75-7.26,2-10.93,2.14a233.55,233.55,0,0,1-24.33.22c-20.92-1.2-31.37-12.27-31.67-33.35-.21-14.88,0-29.77,0-44.66,0-2.95,0-5.89,0-9.57l-14.09-2.1v-21.26l13.25-1.07c2-10-.16-20.33,1.53-31.47C3770.74,1294.4,3781.4,1294.49,3793.2,1294.67Z"/><path class="cls-3" d="M3010.61,1326.76c0,3.95,0,6.62,0,9.29q0,51.11,0,102.22a56.39,56.39,0,0,1-.45,8.89c-2.5,15.5-12.88,26.54-28.13,29.92-13.19,2.92-26.24,1.13-39.87-1.05v-23.86c5.18.57,9.93,1.4,14.71,1.55,11.9.37,17.43-4.43,18.74-16.4a181.59,181.59,0,0,0,.92-18.62c.11-19.47.07-38.94,0-58.41,0-3.17-.35-6.35-.57-10.16l-19.12-1.24c-2.46-7.16-1.22-14-.95-22C2974.1,1326.55,2991.77,1326.69,3010.61,1326.76Z"/><path class="cls-3" d="M4185.38,1327.13h32.4l2,15.5c10-7.49,18.86-14.37,30.22-15.71,4.2-.49,8.5-.08,13.26-.08v31.45c-3.35,0-6.25-.14-9.13,0-9.4.55-18.87.68-28.16,2-6.88,1-7.24,2.17-7.27,9.36-.08,18.65,0,37.31,0,56,0,3.2,0,6.4,0,10.21h-33.27Z"/><path class="cls-3" d="M2974.16,1308.75v-23.42c6.19-2.48,27.1-2.87,36.45-.65v23.68C2998.54,1310,2986.94,1309.42,2974.16,1308.75Z"/></svg>