<?xml version="1.0" encoding="utf-8"?>
<!-- Generator: Adobe Illustrator 16.0.0, SVG Export Plug-In . SVG Version: 6.00 Build 0)  -->
<!DOCTYPE svg PUBLIC "-//W3C//DTD SVG 1.1//EN" "http://www.w3.org/Graphics/SVG/1.1/DTD/svg11.dtd">
<svg version="1.1" id="Layer_1" xmlns="http://www.w3.org/2000/svg" xmlns:xlink="http://www.w3.org/1999/xlink" x="0px" y="0px"
	 width="491.497px" height="111.451px" viewBox="0 0 491.497 111.451" enable-background="new 0 0 491.497 111.451"
	 xml:space="preserve">
<path fill="#45484C" d="M128.775,90.347c0,0,8.31,9.053,22.26,9.053c8.014,0,14.988-4.008,14.988-11.873
	c0-16.323-40.215-12.318-40.215-36.657c0-13.356,12.021-20.629,25.524-20.629c15.73,0,23.001,8.163,23.001,8.163l-4.6,7.717
	c0,0-6.381-6.827-18.698-6.827c-7.568,0-14.839,3.265-14.839,11.576c0,16.474,40.214,12.022,40.214,36.657
	c0,12.171-10.536,20.927-25.524,20.927c-18.104,0-27.601-10.833-27.601-10.833L128.775,90.347z M221.672,30.239
	c18.252,0,27.305,10.686,27.305,10.686l-5.194,7.569c0,0-8.311-9.053-21.814-9.053c-16.323,0-29.085,12.17-29.085,29.979
	c0,17.513,12.91,29.979,29.383,29.979c15.136,0,23.891-10.537,23.891-10.537l4.6,7.865c0,0-10.09,11.726-29.085,11.726
	c-22.111,0-39.177-15.879-39.177-39.032C182.496,46.417,199.709,30.239,221.672,30.239z M301.362,60.515h4.156v-1.929
	c0-14.396-7.866-19.293-18.551-19.293c-12.316,0-21.072,7.125-21.072,7.125l-4.748-7.718c0,0,9.793-8.459,26.562-8.459
	c17.955,0,27.898,9.944,27.898,28.643v47.789h-9.646V98.51c0-3.711,0.297-6.235,0.297-6.235h-0.297c0,0-6.232,16.179-24.932,16.179
	c-12.465,0-25.375-7.272-25.375-22.112C255.657,61.108,288.454,60.515,301.362,60.515z M282.665,99.843
	c14.246,0,22.854-14.841,22.854-27.752v-3.265h-4.305c-11.725,0-35.17,0.444-35.17,16.918
	C266.043,92.722,271.534,99.843,282.665,99.843z M330.747,3.525h10.09V87.97c0,9.795,4.453,11.279,8.311,11.279
	c1.338,0,2.523-0.148,2.523-0.148v9.056c0,0-1.779,0.296-3.709,0.296c-6.234,0-17.215-1.93-17.215-18.254V3.525L330.747,3.525z
	 M361.018,96.579h11.725v11.872h-11.725V96.579z M382.239,4.119h10.537v12.614h-10.537V4.119z M382.538,33.801h10.09v74.65h-10.09
	V33.801z M443.526,30.239c21.814,0,39.473,16.622,39.473,38.734c0,22.56-17.656,39.479-39.473,39.479
	c-21.814,0-39.473-16.918-39.473-39.479C404.053,46.861,421.713,30.239,443.526,30.239z M443.526,99.397
	c16.025,0,29.086-13.061,29.086-30.424c0-16.918-13.061-29.535-29.086-29.535s-29.084,12.615-29.084,29.535
	C414.442,86.338,427.5,99.397,443.526,99.397z"/>
<g>
	<rect x="74.001" y="2.659" fill="#3C97D3" width="26.448" height="105.792"/>
	<rect x="40.501" y="37.923" opacity="0.7" fill="#3C97D3" enable-background="new    " width="26.448" height="70.528"/>
	<rect x="7" y="73.187" opacity="0.4" fill="#3C97D3" enable-background="new    " width="26.448" height="35.266"/>
</g>
</svg>
